<?xml version="1.0" encoding="UTF-8" standalone="no"?>
<svg
   xmlns:dc="http://purl.org/dc/elements/1.1/"
   xmlns:cc="http://creativecommons.org/ns#"
   xmlns:rdf="http://www.w3.org/1999/02/22-rdf-syntax-ns#"
   xmlns:svg="http://www.w3.org/2000/svg"
   xmlns="http://www.w3.org/2000/svg"
   xmlns:sodipodi="http://sodipodi.sourceforge.net/DTD/sodipodi-0.dtd"
   xmlns:inkscape="http://www.inkscape.org/namespaces/inkscape"
   inkscape:export-ydpi="2362.5117"
   inkscape:export-xdpi="2362.5117"
   inkscape:export-filename="/Users/rbova/GithubProjects/COS426-Website 2.0/static/favicon.png"
   inkscape:version="1.0beta1 (e4c7a4b, 2019-11-30)"
   height="41.609951"
   width="41.609951"
   sodipodi:docname="princeton_university_signature.svg"
   id="svg901"
   xml:space="preserve"
   viewBox="0 0 41.609953 41.609951"
   version="1.1"><metadata
     id="metadata907"><rdf:RDF><cc:Work
         rdf:about=""><dc:format>image/svg+xml</dc:format><dc:type
           rdf:resource="http://purl.org/dc/dcmitype/StillImage" /><dc:title></dc:title></cc:Work></rdf:RDF></metadata><defs
     id="defs905" /><sodipodi:namedview
     inkscape:current-layer="svg901"
     inkscape:window-maximized="0"
     inkscape:window-y="23"
     inkscape:window-x="98"
     inkscape:cy="32.942083"
     inkscape:cx="15.351108"
     inkscape:zoom="5.0465843"
     lock-margins="false"
     fit-margin-bottom="0"
     fit-margin-right="0"
     fit-margin-left="0"
     fit-margin-top="0"
     showgrid="false"
     id="namedview903"
     inkscape:window-height="812"
     inkscape:window-width="1237"
     inkscape:pageshadow="2"
     inkscape:pageopacity="0"
     guidetolerance="10"
     gridtolerance="10"
     objecttolerance="10"
     borderopacity="1"
     inkscape:document-rotation="0"
     bordercolor="#666666"
     pagecolor="#ffb0ff" /><g
     id="g899"
     transform="matrix(1.3333,0,0,-1.3333,-8.5117984,53.850656)"><g
       id="g897"
       transform="scale(0.1)"><g
         id="g839"
         fill="#f58025"><path
           inkscape:connector-curvature="0"
           id="path833"
           d="m 165.51,150.88 c 15.586,-19.707 33.808,-37.5 54.316,-52.832 20.293,15.117 38.613,32.812 54.414,52.695 L 219.787,203.692 165.51,150.88" /><path
           inkscape:connector-curvature="0"
           id="path835"
           d="m 140.18,188.75 79.668,76.52 79.824,-76.735 c 13.262,23.574 23.32,49.36 29.512,76.93 0.273,1.308 0.507,2.598 0.781,3.906 h -220.18 c 5.957,-28.379 16.289,-55.523 30.391,-80.621" /><path
           inkscape:connector-curvature="0"
           id="path837"
           d="m 140.13,188.75 c 7.422,-13.242 15.918,-25.898 25.39,-37.871 l 54.278,52.812 54.453,-52.949 c 9.394,11.836 17.891,24.473 25.371,37.793 L 219.798,265.27 140.13,188.75" /></g><g
         id="g847"
         fill="#221e20"><path
           inkscape:connector-curvature="0"
           id="path841"
           d="m 274,154.48 -52.449,51.008 -1.75,1.692 -1.754,-1.692 -52.285,-50.886 c -8.317,10.769 -15.871,22.07 -22.5,33.679 l 76.539,73.504 76.679,-73.711 C 289.793,176.355 282.23,165.078 274,154.48" /><path
           inkscape:connector-curvature="0"
           id="path843"
           d="m 219.8,258.33 -73.399,-70.484 c 5.879,-10.149 12.465,-20.039 19.645,-29.485 l 50.266,48.914 3.488,3.391 3.484,-3.391 50.449,-49.05 c 7.129,9.355 13.707,19.218 19.618,29.406 z m 0,6.942 79.824,-76.735 c -7.48,-13.32 -15.977,-25.957 -25.371,-37.793 L 219.8,203.693 165.522,150.881 c -9.472,11.973 -17.968,24.629 -25.39,37.871 l 79.668,76.52" /><path
           inkscape:connector-curvature="0"
           id="path845"
           d="m 334.93,350.97 c -9.36,-2.856 -19.297,-4.399 -29.629,-4.399 -36.426,0 -68.242,19.145 -85.41,47.641 -17.192,-28.496 -49.004,-47.641 -85.43,-47.641 -10.317,0 -20.254,1.543 -29.594,4.375 -2.437,-27.808 -0.66,-55.254 4.863,-81.636 h 220.18 c 5.766,27.515 7.324,54.961 5.024,81.66" /></g><path
         inkscape:connector-curvature="0"
         id="path849"
         fill="#fff"
         d="m 274.12,317.29 v 9.356 h -5.723 v 6.601 l -5.996,1.68 h -0.429 v 5.605 c 0,0 -2.071,-2.48 -11.563,-2.48 -8.984,0 -14.258,2.91 -21.406,2.91 -6.875,0 -8.984,-3.926 -8.984,-3.926 v -2.265 h -0.235 v 2.265 c 0,0 -2.148,3.926 -8.984,3.926 -7.149,0 -12.422,-2.93 -21.406,-2.93 -9.493,0 -11.133,2.481 -11.133,2.481 v -5.899 h -0.391 l -6.504,-1.367 v -6.601 h -5.742 v -9.356 h 5.742 v -15.137 h -5.742 v -9.375 h 5.742 v -11.64 c 0,0 9.629,-1.504 18.535,-1.504 10.528,0 16.602,1.523 23.438,1.66 v -2.949 c 0,0 2.754,-1.367 6.426,-1.367 3.711,0 6.66,1.367 6.66,1.367 v 2.949 c 6.816,-0.137 12.89,-1.66 23.476,-1.66 8.868,0 18.496,1.504 18.496,1.504 v 11.64 h 5.723 v 9.375 h -5.723 v 15.137 h 5.723" /><g
         id="g887"
         fill="#221e20"><path
           inkscape:connector-curvature="0"
           id="path851"
           d="m 267.27,281.74 c -2.449,-0.351 -10.246,-1.367 -17.507,-1.367 -10.407,0 -23.239,1.621 -23.364,1.641 l -1.125,0.156 v -3.418 c -0.984,-0.371 -3.144,-1.035 -5.664,-1.035 -2.468,0 -4.492,0.664 -5.429,1.015 v 3.438 l -1.121,-0.156 c -0.129,-0.02 -12.969,-1.641 -23.313,-1.641 -7.285,0 -15.086,1.016 -17.539,1.367 v 50.446 c 0.918,0.175 3.644,0.761 4.973,1.035 v -45.696 c 0.488,-1.05 2.578,-3.472 12.129,-3.472 l 12.089,1.582 9.239,1.328 c 6.172,0 8.105,-3.281 8.191,-3.418 l 0.285,0.152 h 1.426 l 0.273,-0.152 c 0.079,0.137 1.981,3.418 8.106,3.418 l 9.23,-1.313 12.192,-1.597 c 9.679,0 12.097,2.539 12.344,2.832 l 0.183,46.57 c 1.27,-0.352 3.594,-0.996 4.402,-1.23 z m -88.097,56.617 c 1.601,-0.8 4.472,-1.64 10.137,-1.64 l 12.175,1.601 9.231,1.328 c 6.062,0 7.996,-3.242 8.105,-3.418 v -49.851 c -1.476,1.226 -3.957,2.574 -8.183,2.574 l -9.668,-1.363 -11.66,-1.543 c -8.536,0 -10.313,2.051 -10.333,2.066 0,0 0.176,46.848 0.196,50.246 z m 41.64,-2.129 c 0.079,0.137 1.981,3.418 8.106,3.418 l 9.23,-1.308 12.192,-1.602 c 5.902,0 8.91,0.918 10.574,1.719 v -50.852 c -0.129,0.254 -2.523,-1.558 -10.574,-1.558 l -11.754,1.558 -9.668,1.348 c -4.192,0 -6.641,-1.348 -8.106,-2.558 z m 42.067,-0.683 0.027,7.168 -1.738,-1.836 c -0.02,-0.02 -2.152,-2.149 -10.828,-2.149 l -11.754,1.563 -9.668,1.348 c -5.305,0 -7.949,-2.168 -9.102,-3.477 -1.164,1.309 -3.828,3.477 -9.101,3.477 l -9.66,-1.368 -11.746,-1.562 c -8.536,0 -10.313,2.051 -10.333,2.07 l -1.769,2.168 -0.027,-2.754 v -4.922 l -6.965,-1.464 v -53.805 l 0.84,-0.117 c 0.097,-0.02 9.804,-1.524 18.691,-1.524 8.762,0 19.16,1.153 22.441,1.543 v -2.441 l 0.547,-0.293 c 0.129,-0.059 3.008,-1.465 6.875,-1.465 3.887,0 6.953,1.406 7.082,1.465 l 0.575,0.273 v 2.461 c 3.281,-0.39 13.683,-1.543 22.496,-1.543 8.851,0 18.57,1.504 18.668,1.524 l 0.839,0.117 v 53.746 l -6.39,1.797" /><path
           inkscape:connector-curvature="0"
           id="path853"
           d="m 193.34,329.4 c -0.781,-0.054 -1.289,-0.464 -1.523,-0.996 l -3.204,-7.129 c 0,0 -0.156,-0.117 -0.254,-0.117 -0.097,0 -0.214,0.117 -0.292,0.332 -0.079,0.254 -0.469,1.25 -1.309,3.203 l -1.035,2.325 c -0.371,0.863 -0.664,1.425 -0.762,1.601 -0.371,0.649 -0.84,0.703 -1.348,0.781 -0.058,0.078 -0.058,0.161 -0.058,0.215 0,0.078 0,0.117 0.039,0.219 h 0.527 c 0.606,0 1.113,-0.039 1.563,-0.039 0.527,0 1.406,0.058 1.992,0.058 h 0.351 c 0.059,-0.019 0.079,-0.136 0.079,-0.199 0,-0.039 0,-0.176 -0.039,-0.23 -0.391,-0.039 -1.27,-0.024 -1.27,-0.571 0,-0.117 0.02,-0.332 0.078,-0.464 l 2.109,-5 1.758,4.136 c 0.215,0.469 0.235,0.879 0.235,1.094 0,0.473 -0.332,0.688 -1.211,0.781 -0.02,0.063 -0.059,0.141 -0.059,0.2 0,0.078 0.039,0.195 0.059,0.253 h 0.254 c 0.39,0 0.781,-0.058 1.66,-0.058 0.156,0 0.762,0.039 1.054,0.039 h 0.606 c 0.039,-0.078 0.078,-0.117 0.078,-0.195 0,-0.063 -0.039,-0.176 -0.078,-0.239" /><path
           inkscape:connector-curvature="0"
           id="path855"
           d="m 202.26,321.42 c -2.559,0 -3.946,0.059 -4.297,0.059 -0.274,0 -0.899,0.015 -1.211,0.015 -0.352,0 -1.172,-0.054 -2.07,-0.054 l -0.508,0.015 c -0.039,0.078 -0.039,0.117 -0.039,0.195 0,0.063 0,0.161 0.019,0.239 0.684,0.054 1.172,0.176 1.289,0.269 0.137,0.18 0.235,0.532 0.274,1.289 0,0.395 0.019,0.825 0.019,1.274 0,0.64 -0.019,1.426 -0.019,2.359 v 1.328 c -0.02,0.918 -0.469,0.918 -1.426,1.035 -0.02,0.079 -0.039,0.161 -0.039,0.215 0,0.063 0.019,0.199 0.078,0.215 h 0.469 c 0.312,0 1.152,-0.016 2.754,-0.016 1.465,0 2.89,-0.019 3.203,-0.019 0.195,0 0.762,-0.023 0.879,-0.023 0.195,0 0.273,-0.016 0.273,-0.196 l 0.117,-1.914 c -0.117,-0.058 -0.136,-0.074 -0.234,-0.074 -0.078,0 -0.137,0 -0.195,0.016 -0.567,0.96 -0.84,1.156 -1.27,1.464 -0.156,0.121 -0.39,0.2 -0.742,0.215 -0.117,0 -0.41,0.024 -1.133,0.024 -0.586,0 -0.879,-0.024 -0.957,-0.024 -0.098,0 -0.078,0 -0.117,-0.332 -0.02,-0.191 -0.039,-0.586 -0.039,-1.695 v -1.098 h 0.293 c 0.371,0 0.742,0.039 0.957,0.102 0.332,0.094 0.683,0.332 0.859,0.601 0.078,0.102 0.156,0.571 0.196,0.703 0.058,0.04 0.156,0.063 0.273,0.063 0.078,0 0.156,-0.023 0.215,-0.063 -0.02,-0.347 -0.078,-0.996 -0.078,-1.812 0,-0.41 0.039,-1.313 0.039,-1.684 -0.078,-0.054 -0.117,-0.054 -0.235,-0.054 -0.058,0 -0.175,0 -0.234,0.015 -0.078,0.727 -0.195,1.211 -0.801,1.465 -0.332,0.141 -0.605,0.18 -0.937,0.18 -0.176,0 -0.391,-0.024 -0.567,-0.039 v -2.207 c 0,-0.508 0.039,-0.824 0.118,-0.996 0.058,-0.137 0.253,-0.43 0.507,-0.469 0.118,-0.024 0.332,-0.063 0.782,-0.063 h 1.211 c 0.312,0 0.761,0.039 0.917,0.137 0.293,0.195 1.075,1.035 1.348,1.817 0.117,0.043 0.176,0.043 0.254,0.043 0.078,0 0.156,-0.02 0.254,-0.059 v -2.231 c 0,-0.21 -0.137,-0.23 -0.449,-0.23" /><path
           inkscape:connector-curvature="0"
           id="path857"
           d="m 212.42,327.2 c -0.059,0 -0.137,0.024 -0.234,0.024 -0.196,0.523 -0.43,0.996 -0.625,1.25 -0.352,0.426 -0.684,0.719 -1.563,0.816 -0.195,0.024 -0.664,0.024 -0.82,0.024 l -0.02,-3.735 c 0,-0.586 0,-1.265 0.02,-2.554 0.019,-0.977 0.449,-0.977 1.465,-1.118 0.058,-0.093 0.078,-0.172 0.078,-0.23 0,-0.078 -0.02,-0.141 -0.059,-0.219 h -0.371 c -0.586,0 -1.758,0.039 -2.129,0.039 -0.254,0 -1.543,-0.054 -2.148,-0.054 -0.059,0.093 -0.078,0.093 -0.078,0.234 0,0.058 0.019,0.137 0.058,0.215 1.348,0.093 1.485,0.347 1.524,0.781 0.039,0.27 0.039,1.387 0.039,2.52 v 3.082 c 0,0.39 -0.02,0.785 -0.078,1.039 -0.254,0 -1.075,0 -1.309,-0.098 -0.684,-0.258 -1.172,-0.82 -1.699,-1.856 -0.059,-0.019 -0.156,-0.019 -0.215,-0.019 -0.078,0 -0.156,0.019 -0.195,0.074 v 2.168 c 0,0.195 0.019,0.258 0.254,0.258 0.195,0 0.507,-0.023 0.917,-0.023 0.293,0 1.524,-0.016 3.067,-0.016 2.031,0 3.535,0.058 3.926,0.058 0.195,0 0.332,0 0.41,-0.082 0.019,-0.039 0,-0.195 0,-0.308 v -2.168 c -0.039,-0.078 -0.137,-0.102 -0.215,-0.102" /><path
           inkscape:connector-curvature="0"
           id="path859"
           d="m 192.93,313.98 c -0.078,0 -0.137,0.015 -0.254,0.015 -0.176,0.528 -0.41,0.996 -0.625,1.25 -0.332,0.434 -0.684,0.727 -1.563,0.821 -0.195,0.023 -0.664,0.023 -0.82,0.023 l -0.019,-3.731 c 0,-0.585 0,-1.269 0.019,-2.558 0.02,-0.981 0.469,-0.981 1.484,-1.113 0.059,-0.098 0.059,-0.176 0.059,-0.239 0,-0.078 0,-0.132 -0.039,-0.215 h -0.371 c -0.606,0 -1.777,0.04 -2.129,0.04 -0.254,0 -1.543,-0.055 -2.168,-0.055 -0.039,0.098 -0.059,0.098 -0.059,0.23 0,0.063 0.02,0.141 0.039,0.215 1.348,0.102 1.485,0.356 1.543,0.781 0.02,0.278 0.02,1.387 0.02,2.524 v 3.086 c 0,0.387 0,0.777 -0.059,1.035 -0.254,0 -1.093,0 -1.328,-0.102 -0.683,-0.254 -1.152,-0.816 -1.679,-1.851 -0.079,-0.024 -0.176,-0.024 -0.235,-0.024 -0.078,0 -0.137,0.024 -0.195,0.079 v 2.167 c 0,0.2 0.039,0.254 0.254,0.254 0.215,0 0.508,-0.015 0.918,-0.015 0.312,0 1.543,-0.024 3.086,-0.024 2.011,0 3.535,0.063 3.906,0.063 0.215,0 0.352,0 0.41,-0.078 0.039,-0.039 0.02,-0.2 0.02,-0.317 v -2.168 c -0.059,-0.078 -0.137,-0.093 -0.215,-0.093" /><path
           inkscape:connector-curvature="0"
           id="path861"
           d="m 202.57,308.19 c -2.539,0 -3.945,0.063 -4.277,0.063 -0.274,0 -0.899,0.016 -1.231,0.016 -0.332,0 -1.171,-0.055 -2.05,-0.055 l -0.508,0.015 c -0.039,0.083 -0.059,0.122 -0.059,0.2 0,0.054 0,0.156 0.039,0.23 0.684,0.063 1.172,0.18 1.27,0.278 0.156,0.171 0.234,0.527 0.273,1.289 0.02,0.386 0.039,0.82 0.039,1.265 0,0.649 -0.019,1.43 -0.019,2.363 0,0.665 -0.02,1.055 -0.02,1.333 -0.019,0.917 -0.449,0.917 -1.406,1.035 -0.039,0.078 -0.059,0.156 -0.059,0.215 0,0.054 0.039,0.195 0.098,0.21 h 0.449 c 0.332,0 1.153,-0.015 2.754,-0.015 1.485,0 2.891,-0.024 3.223,-0.024 0.176,0 0.762,-0.015 0.859,-0.015 0.215,0 0.293,-0.024 0.293,-0.199 l 0.098,-1.915 c -0.098,-0.054 -0.137,-0.078 -0.235,-0.078 -0.058,0 -0.117,0 -0.195,0.024 -0.547,0.957 -0.82,1.148 -1.269,1.465 -0.157,0.117 -0.371,0.195 -0.723,0.214 -0.117,0 -0.41,0.016 -1.152,0.016 -0.567,0 -0.879,-0.016 -0.938,-0.016 -0.117,0 -0.098,0 -0.137,-0.335 0,-0.196 -0.019,-0.582 -0.019,-1.7 v -1.09 h 0.273 c 0.391,0 0.762,0.04 0.957,0.094 0.352,0.102 0.684,0.332 0.879,0.61 0.059,0.093 0.157,0.562 0.176,0.703 0.078,0.039 0.176,0.054 0.273,0.054 0.098,0 0.176,-0.015 0.235,-0.054 -0.02,-0.356 -0.098,-0.996 -0.098,-1.821 0,-0.41 0.059,-1.304 0.059,-1.675 -0.098,-0.063 -0.117,-0.063 -0.235,-0.063 -0.078,0 -0.175,0 -0.253,0.024 -0.079,0.718 -0.176,1.211 -0.801,1.461 -0.332,0.136 -0.606,0.175 -0.918,0.175 -0.176,0 -0.391,-0.015 -0.567,-0.039 v -2.207 c 0,-0.508 0.039,-0.816 0.098,-0.996 0.078,-0.137 0.273,-0.43 0.508,-0.469 0.117,-0.015 0.351,-0.054 0.781,-0.054 h 1.231 c 0.312,0 0.742,0.039 0.898,0.132 0.312,0.2 1.094,1.04 1.367,1.821 0.098,0.039 0.176,0.039 0.254,0.039 0.059,0 0.156,-0.024 0.234,-0.063 v -2.222 c 0,-0.215 -0.136,-0.239 -0.449,-0.239" /><path
           inkscape:connector-curvature="0"
           id="path863"
           d="m 208.51,308 c -0.703,0 -1.485,0.274 -1.953,0.512 -0.079,0.039 -0.235,0.078 -0.313,0.078 -0.098,0 -0.351,-0.141 -0.625,-0.332 -0.195,0 -0.43,0.098 -0.488,0.254 0,0.176 0.156,0.703 0.156,1.035 0,0.191 -0.059,1.148 -0.078,1.363 0.078,0.117 0.234,0.18 0.371,0.18 h 0.137 c 0.176,-0.356 0.527,-1.273 0.781,-1.645 0.527,-0.601 1.309,-0.878 1.875,-0.878 0.625,0 1.094,0.121 1.367,0.414 0.391,0.371 0.469,0.601 0.469,1.011 0,0.317 -0.059,0.571 -0.234,0.766 -0.215,0.269 -0.391,0.391 -0.879,0.625 -0.371,0.176 -1.68,0.508 -2.149,0.762 -0.586,0.269 -0.879,0.504 -1.172,0.82 -0.351,0.445 -0.488,1.055 -0.488,1.543 0,1.348 1.074,2.359 2.598,2.359 0.566,0 1.347,-0.054 2.011,-0.586 0.137,0.161 0.313,0.332 0.489,0.493 0.254,0 0.429,-0.137 0.449,-0.239 -0.02,-0.191 -0.137,-0.718 -0.137,-1.148 0,-0.215 0.137,-1.113 0.137,-1.25 -0.098,-0.039 -0.195,-0.117 -0.332,-0.117 -0.039,0 -0.098,0.015 -0.156,0.039 -0.235,0.41 -0.45,1.09 -0.703,1.465 -0.391,0.527 -0.938,0.718 -1.68,0.718 -0.84,0 -1.524,-0.523 -1.524,-1.25 0,-0.703 0.567,-1.035 1.036,-1.25 0.351,-0.133 0.781,-0.293 1.269,-0.445 0.625,-0.219 1.094,-0.371 1.348,-0.512 0.976,-0.508 1.386,-1.226 1.386,-2.222 0,-1.567 -1.406,-2.563 -2.968,-2.563" /><path
           inkscape:connector-curvature="0"
           id="path865"
           d="m 196.32,294.95 c -2.558,0 -3.945,0.063 -4.297,0.063 -0.273,0 -0.898,0.015 -1.211,0.015 -0.351,0 -1.171,-0.054 -2.07,-0.054 l -0.508,0.015 c -0.039,0.078 -0.039,0.117 -0.039,0.2 0,0.054 0,0.156 0.02,0.234 0.683,0.058 1.172,0.176 1.289,0.269 0.137,0.176 0.234,0.532 0.273,1.289 0,0.391 0.02,0.825 0.02,1.274 0,0.641 -0.02,1.426 -0.02,2.359 v 1.328 c -0.019,0.918 -0.468,0.918 -1.426,1.039 -0.019,0.079 -0.039,0.157 -0.039,0.211 0,0.063 0.02,0.2 0.079,0.215 h 0.468 c 0.313,0 1.153,-0.015 2.754,-0.015 1.465,0 2.891,-0.024 3.203,-0.024 0.196,0 0.762,-0.015 0.879,-0.015 0.196,0 0.274,-0.024 0.274,-0.2 l 0.117,-1.914 c -0.117,-0.054 -0.137,-0.078 -0.235,-0.078 -0.078,0 -0.136,0 -0.195,0.024 -0.566,0.957 -0.84,1.152 -1.269,1.461 -0.157,0.121 -0.391,0.199 -0.743,0.214 -0.117,0 -0.41,0.024 -1.132,0.024 -0.586,0 -0.879,-0.024 -0.957,-0.024 -0.098,0 -0.079,0 -0.118,-0.332 -0.019,-0.191 -0.039,-0.586 -0.039,-1.699 v -1.094 h 0.293 c 0.371,0 0.743,0.039 0.957,0.102 0.332,0.098 0.684,0.332 0.86,0.602 0.078,0.097 0.156,0.57 0.195,0.707 0.059,0.039 0.156,0.054 0.273,0.054 0.079,0 0.157,-0.015 0.215,-0.054 -0.019,-0.352 -0.078,-1 -0.078,-1.821 0,-0.406 0.039,-1.304 0.039,-1.679 -0.078,-0.055 -0.117,-0.055 -0.234,-0.055 -0.059,0 -0.176,0 -0.234,0.015 -0.079,0.723 -0.196,1.211 -0.801,1.465 -0.332,0.141 -0.606,0.176 -0.938,0.176 -0.176,0 -0.39,-0.016 -0.566,-0.035 v -2.207 c 0,-0.512 0.039,-0.82 0.117,-0.996 0.059,-0.141 0.254,-0.434 0.508,-0.473 0.117,-0.015 0.332,-0.055 0.781,-0.055 h 1.211 c 0.313,0 0.762,0.04 0.918,0.133 0.293,0.2 1.074,1.035 1.348,1.821 0.117,0.039 0.175,0.039 0.254,0.039 0.078,0 0.156,-0.024 0.253,-0.063 v -2.222 c 0,-0.215 -0.136,-0.239 -0.449,-0.239" /><path
           inkscape:connector-curvature="0"
           id="path867"
           d="m 208.63,302.98 c -0.859,-0.042 -1.602,-0.507 -1.602,-1.875 l -0.019,-4.335 c 0,-0.176 0.078,-1.411 0.078,-1.875 -0.137,-0.082 -0.273,-0.137 -0.352,-0.137 -0.039,0 -0.117,0.055 -0.214,0.137 l -5.957,6.406 0.058,-1.313 0.02,-2.359 c 0,-0.18 0.039,-0.625 0.078,-0.957 0.039,-0.527 0.195,-0.703 0.429,-0.902 0.293,-0.25 0.782,-0.332 1.133,-0.372 0.039,-0.054 0.059,-0.132 0.059,-0.195 0,-0.015 -0.02,-0.137 -0.078,-0.215 h -0.645 c -0.547,0 -0.976,0.024 -1.543,0.024 -0.371,0 -0.898,-0.039 -1.269,-0.039 h -0.274 c -0.019,0.054 -0.019,0.156 -0.019,0.195 0,0.035 0,0.113 0.039,0.215 0.429,0.039 1.094,0.23 1.347,0.586 0.098,0.215 0.137,0.601 0.137,1.011 v 3.032 c 0,0.484 -0.019,0.742 -0.039,1.211 -0.019,0.386 -0.098,0.679 -0.293,0.918 -0.019,0.054 -0.215,0.254 -0.41,0.449 -0.195,0.152 -0.664,0.293 -0.957,0.406 -0.039,0.078 -0.059,0.18 -0.059,0.195 0,0.063 0.02,0.161 0.059,0.215 h 0.215 c 0.176,0 1.094,-0.039 1.797,-0.039 h 0.41 c 0.078,-0.039 0.215,-0.113 0.254,-0.176 l 4.414,-4.824 c 0.332,-0.371 0.762,-0.855 0.996,-1.172 v 3.481 c 0,0.469 -0.02,0.801 -0.039,0.972 -0.039,0.356 -0.117,0.665 -0.254,0.903 -0.137,0.215 -0.957,0.332 -1.387,0.429 -0.039,0.079 -0.039,0.172 -0.039,0.25 0,0.04 0,0.098 0.02,0.176 h 0.254 c 0.41,0 1.074,-0.054 1.484,-0.054 1.016,0 1.328,0.039 1.836,0.039 h 0.332 c 0.039,-0.078 0.039,-0.161 0.039,-0.215 0,-0.039 0,-0.141 -0.039,-0.196" /><path
           inkscape:connector-curvature="0"
           id="path869"
           d="m 236.46,329.44 c -0.84,-0.039 -1.602,-0.503 -1.602,-1.875 v -4.336 c 0,-0.171 0.059,-1.406 0.059,-1.875 -0.117,-0.078 -0.273,-0.132 -0.332,-0.132 -0.059,0 -0.117,0.054 -0.234,0.132 l -5.957,6.411 0.078,-1.313 0.019,-2.359 c 0,-0.176 0.039,-0.625 0.059,-0.957 0.058,-0.532 0.215,-0.703 0.429,-0.903 0.313,-0.254 0.801,-0.332 1.133,-0.371 0.039,-0.054 0.059,-0.133 0.059,-0.191 0,-0.024 -0.02,-0.141 -0.059,-0.219 h -0.664 c -0.527,0 -0.957,0.024 -1.543,0.024 -0.371,0 -0.879,-0.039 -1.25,-0.039 h -0.273 c -0.02,0.054 -0.039,0.156 -0.039,0.195 0,0.039 0,0.113 0.058,0.215 0.411,0.039 1.075,0.23 1.328,0.586 0.118,0.211 0.137,0.601 0.137,1.011 v 3.032 c 0,0.488 0,0.742 -0.019,1.211 -0.02,0.386 -0.118,0.679 -0.293,0.917 -0.039,0.055 -0.215,0.25 -0.43,0.45 -0.176,0.156 -0.664,0.293 -0.957,0.41 -0.02,0.078 -0.039,0.176 -0.039,0.191 0,0.063 0.019,0.157 0.039,0.215 h 0.234 c 0.157,0 1.075,-0.035 1.778,-0.035 h 0.41 c 0.078,-0.039 0.215,-0.117 0.273,-0.18 l 4.414,-4.82 c 0.332,-0.371 0.762,-0.859 0.996,-1.176 v 3.481 c 0,0.464 -0.039,0.797 -0.058,0.972 -0.02,0.356 -0.117,0.664 -0.254,0.903 -0.137,0.214 -0.957,0.332 -1.367,0.425 -0.039,0.079 -0.059,0.176 -0.059,0.254 0,0.039 0,0.102 0.039,0.176 h 0.254 c 0.41,0 1.074,-0.058 1.485,-0.058 0.996,0 1.328,0.042 1.835,0.042 h 0.313 c 0.039,-0.082 0.059,-0.16 0.059,-0.214 0,-0.039 -0.02,-0.137 -0.059,-0.2" /><path
           inkscape:connector-curvature="0"
           id="path871"
           d="m 243.86,328.64 c -0.41,0.543 -0.918,0.875 -1.679,0.875 -0.704,0 -1.153,-0.309 -1.563,-0.875 -0.508,-0.649 -0.781,-1.68 -0.781,-2.993 0,-1.289 0.273,-2.3 0.742,-2.949 0.43,-0.625 0.918,-0.933 1.66,-0.933 0.899,0 1.426,0.425 1.836,1.152 0.371,0.641 0.547,1.543 0.547,2.715 0,1.383 -0.273,2.359 -0.762,3.008 z m 1.367,-6.172 c -0.82,-0.801 -1.953,-1.274 -3.007,-1.274 -0.996,0 -2.149,0.434 -2.95,1.211 -0.878,0.844 -1.269,1.977 -1.269,3.227 0,1.187 0.391,2.324 1.269,3.179 0.938,0.903 1.954,1.274 2.969,1.274 0.742,0 1.426,-0.195 2.227,-0.625 1.308,-0.844 2.07,-2.231 2.07,-3.75 0,-1.195 -0.469,-2.387 -1.309,-3.242" /><path
           inkscape:connector-curvature="0"
           id="path873"
           d="m 257.22,329.4 c -0.762,-0.054 -1.27,-0.464 -1.504,-0.996 l -3.203,-7.129 c 0,0 -0.157,-0.117 -0.254,-0.117 -0.098,0 -0.235,0.117 -0.293,0.332 -0.078,0.254 -0.469,1.25 -1.328,3.203 l -1.016,2.325 c -0.371,0.863 -0.664,1.425 -0.762,1.601 -0.39,0.649 -0.84,0.703 -1.347,0.781 -0.078,0.078 -0.078,0.161 -0.078,0.215 0,0.078 0,0.117 0.058,0.219 h 0.527 c 0.586,0 1.094,-0.039 1.543,-0.039 0.528,0 1.407,0.058 2.012,0.058 h 0.332 c 0.078,-0.019 0.098,-0.136 0.098,-0.199 0,-0.039 0,-0.176 -0.039,-0.23 -0.41,-0.039 -1.27,-0.024 -1.27,-0.571 0,-0.117 0,-0.332 0.078,-0.464 l 2.09,-5 1.778,4.136 c 0.195,0.469 0.214,0.879 0.214,1.094 0,0.473 -0.332,0.688 -1.211,0.781 -0.019,0.063 -0.039,0.141 -0.039,0.2 0,0.078 0.02,0.195 0.039,0.253 h 0.254 c 0.391,0 0.782,-0.058 1.68,-0.058 0.137,0 0.762,0.039 1.055,0.039 h 0.605 c 0.039,-0.078 0.059,-0.117 0.059,-0.195 0,-0.063 -0.02,-0.176 -0.078,-0.239" /><path
           inkscape:connector-curvature="0"
           id="path875"
           d="m 233.71,313.98 c -0.078,0 -0.137,0.015 -0.254,0.015 -0.176,0.528 -0.41,0.996 -0.625,1.25 -0.332,0.434 -0.683,0.727 -1.562,0.821 -0.196,0.023 -0.664,0.023 -0.821,0.023 l -0.019,-3.731 c 0,-0.585 0,-1.269 0.019,-2.558 0.02,-0.981 0.469,-0.981 1.485,-1.113 0.058,-0.098 0.058,-0.176 0.058,-0.239 0,-0.078 0,-0.132 -0.039,-0.215 h -0.371 c -0.605,0 -1.777,0.04 -2.129,0.04 -0.254,0 -1.543,-0.055 -2.168,-0.055 -0.039,0.098 -0.058,0.098 -0.058,0.23 0,0.063 0.019,0.141 0.039,0.215 1.347,0.102 1.484,0.356 1.543,0.781 0.019,0.278 0.019,1.387 0.019,2.524 v 3.086 c 0,0.387 0,0.777 -0.058,1.035 -0.254,0 -1.094,0 -1.328,-0.102 -0.684,-0.254 -1.153,-0.816 -1.68,-1.851 -0.078,-0.024 -0.176,-0.024 -0.235,-0.024 -0.078,0 -0.136,0.024 -0.195,0.079 v 2.167 c 0,0.2 0.039,0.254 0.254,0.254 0.215,0 0.508,-0.015 0.918,-0.015 0.313,0 1.543,-0.024 3.086,-0.024 2.012,0 3.535,0.063 3.906,0.063 0.215,0 0.352,0 0.41,-0.078 0.039,-0.039 0.02,-0.2 0.02,-0.317 v -2.168 c -0.059,-0.078 -0.137,-0.093 -0.215,-0.093" /><path
           inkscape:connector-curvature="0"
           id="path877"
           d="m 238.49,314.9 h -0.019 c -0.176,-0.332 -0.489,-1.055 -0.606,-1.372 -0.449,-1.089 -0.605,-1.46 -0.683,-1.621 h 2.519 c -0.195,0.508 -0.84,2.051 -1.211,2.993 z m 5.332,-6.704 h -0.664 c -0.43,0 -0.918,0.063 -1.426,0.063 -0.8,0 -1.816,-0.063 -2.207,-0.063 -0.039,0.039 -0.058,0.122 -0.058,0.215 0,0.063 0.019,0.141 0.039,0.199 0.82,0.04 1.152,0.172 1.152,0.504 0,0.137 0,0.411 -0.254,1.094 -0.254,0.625 -0.39,0.902 -0.449,1.059 -0.039,0.054 -0.059,0.093 -0.234,0.093 h -2.657 c -0.175,-0.21 -0.39,-0.796 -0.625,-1.621 -0.058,-0.214 -0.058,-0.41 -0.058,-0.488 0,-0.269 0.254,-0.586 1.191,-0.601 0.059,-0.098 0.059,-0.176 0.059,-0.239 0,-0.054 0,-0.113 -0.02,-0.191 h -0.234 c -0.625,0 -0.801,0.039 -1.465,0.039 -0.43,0 -1.465,-0.039 -1.816,-0.039 -0.02,0.078 -0.039,0.098 -0.039,0.176 0,0.054 0,0.117 0.039,0.214 0.507,0.118 0.976,0.25 1.211,0.625 0.136,0.196 0.586,0.973 1.074,2.188 0.469,1.133 1.035,2.559 1.289,3.145 0.351,0.742 0.469,0.972 0.586,1.23 0.176,0.367 0.371,0.738 0.449,0.879 0.078,0.098 0.254,0.152 0.332,0.152 0.137,0 0.313,-0.078 0.371,-0.176 0.078,-0.156 0.176,-0.308 0.195,-0.41 0.489,-1.172 0.879,-2.207 1.485,-3.648 0.312,-0.727 0.469,-1.195 0.801,-1.953 0.234,-0.469 0.371,-0.84 0.605,-1.274 0.313,-0.64 0.82,-0.64 1.328,-0.777 0.02,-0.063 0.078,-0.117 0.078,-0.195 0,-0.078 -0.039,-0.121 -0.078,-0.2" /><path
           inkscape:connector-curvature="0"
           id="path879"
           d="m 256.87,308.19 -3.418,0.039 h -0.937 c -0.039,0.083 -0.059,0.176 -0.059,0.215 0,0.118 0.02,0.141 0.078,0.215 0.176,0.024 0.625,0 0.84,0.078 0.352,0.157 0.488,0.508 0.488,1.02 v 6.07 h -0.019 l -1.797,-3.941 c -0.195,-0.434 -0.43,-0.903 -0.625,-1.367 -0.41,-0.918 -0.625,-1.543 -0.742,-1.915 -0.059,-0.16 -0.196,-0.16 -0.274,-0.16 -0.117,0 -0.195,0.039 -0.254,0.239 -0.234,0.504 -0.39,0.836 -0.468,1.05 l -2.813,6.196 h -0.058 v -1.582 l 0.058,-3.95 c 0,-1.21 0.625,-1.777 1.582,-1.777 0.039,-0.058 0.078,-0.176 0.078,-0.191 0,-0.063 -0.019,-0.137 -0.058,-0.215 -0.059,0 -0.254,-0.024 -0.43,-0.024 -0.117,0 -0.742,0.063 -1.641,0.063 -0.254,0 -0.781,-0.024 -1.191,-0.024 h -0.566 c -0.02,0.083 -0.04,0.137 -0.04,0.215 0,0.024 0.02,0.118 0.04,0.176 0.234,0.063 1.054,0.258 1.23,0.434 0.176,0.175 0.332,0.523 0.332,1.367 v 4.336 c -0.019,0.68 -0.098,0.957 -0.43,1.187 -0.136,0.102 -0.664,0.16 -1.113,0.215 -0.039,0.078 -0.059,0.18 -0.059,0.235 0,0.058 0.02,0.136 0.059,0.238 0.332,0 0.918,-0.039 1.504,-0.039 h 2.051 c 0.078,-0.063 0.117,-0.102 0.176,-0.215 l 2.519,-5.703 0.449,1.133 c 0.391,0.918 0.957,2.3 1.758,3.789 0.176,0.332 0.391,0.757 0.508,0.972 l 3.203,0.063 c 0.039,-0.078 0.078,-0.141 0.078,-0.215 0,-0.078 -0.019,-0.141 -0.058,-0.219 -0.352,-0.054 -0.957,-0.054 -1.25,-0.547 -0.098,-0.156 -0.157,-0.308 -0.157,-0.996 v -4.082 c 0,-1.558 0.391,-1.719 0.567,-1.836 0.097,-0.054 0.586,-0.117 0.859,-0.117 0.039,-0.074 0.059,-0.137 0.059,-0.215 0,-0.113 -0.039,-0.136 -0.059,-0.215" /><path
           inkscape:connector-curvature="0"
           id="path881"
           d="m 233.51,300.73 c -0.078,0 -0.137,0.024 -0.254,0.024 -0.176,0.523 -0.41,0.992 -0.625,1.25 -0.332,0.43 -0.684,0.723 -1.563,0.816 -0.195,0.024 -0.664,0.024 -0.82,0.024 l -0.02,-3.735 c 0,-0.586 0,-1.265 0.02,-2.554 0.02,-0.981 0.469,-0.981 1.484,-1.117 0.059,-0.094 0.059,-0.172 0.059,-0.235 0,-0.074 0,-0.137 -0.039,-0.215 h -0.371 c -0.606,0 -1.778,0.039 -2.129,0.039 -0.254,0 -1.543,-0.054 -2.168,-0.054 -0.039,0.093 -0.059,0.093 -0.059,0.23 0,0.063 0.02,0.141 0.039,0.219 1.348,0.098 1.485,0.348 1.543,0.777 0.02,0.278 0.02,1.391 0.02,2.524 v 3.086 c 0,0.386 0,0.781 -0.059,1.035 -0.254,0 -1.093,0 -1.328,-0.102 -0.683,-0.254 -1.152,-0.816 -1.679,-1.851 -0.079,-0.024 -0.176,-0.024 -0.235,-0.024 -0.078,0 -0.137,0.024 -0.195,0.078 v 2.168 c 0,0.2 0.039,0.254 0.254,0.254 0.215,0 0.508,-0.015 0.918,-0.015 0.312,0 1.543,-0.024 3.086,-0.024 2.011,0 3.535,0.063 3.906,0.063 0.215,0 0.351,0 0.41,-0.078 0.039,-0.043 0.02,-0.2 0.02,-0.317 v -2.168 c -0.059,-0.074 -0.137,-0.098 -0.215,-0.098" /><path
           inkscape:connector-curvature="0"
           id="path883"
           d="m 244,302.94 c -0.762,-0.055 -1.27,-0.465 -1.504,-0.997 l -3.203,-7.128 c 0,0 -0.156,-0.118 -0.254,-0.118 -0.098,0 -0.234,0.118 -0.293,0.332 -0.078,0.254 -0.469,1.25 -1.328,3.203 l -1.016,2.329 c -0.371,0.859 -0.664,1.421 -0.761,1.597 -0.391,0.649 -0.84,0.703 -1.348,0.782 -0.078,0.082 -0.078,0.16 -0.078,0.214 0,0.078 0,0.118 0.058,0.215 h 0.528 c 0.586,0 1.094,-0.039 1.543,-0.039 0.527,0 1.406,0.063 2.011,0.063 h 0.333 c 0.078,-0.024 0.097,-0.137 0.097,-0.2 0,-0.039 0,-0.171 -0.039,-0.23 -0.41,-0.039 -1.269,-0.023 -1.269,-0.566 0,-0.122 0,-0.332 0.078,-0.469 l 2.09,-5 1.777,4.137 c 0.195,0.468 0.215,0.878 0.215,1.093 0,0.473 -0.332,0.688 -1.211,0.782 -0.02,0.058 -0.039,0.136 -0.039,0.199 0,0.078 0.019,0.191 0.039,0.254 h 0.254 c 0.39,0 0.781,-0.063 1.679,-0.063 0.137,0 0.762,0.039 1.055,0.039 h 0.606 c 0.039,-0.074 0.058,-0.113 0.058,-0.191 0,-0.063 -0.019,-0.18 -0.078,-0.238" /><path
           inkscape:connector-curvature="0"
           id="path885"
           d="m 257.05,294.95 -3.399,0.039 h -0.957 c -0.039,0.078 -0.039,0.18 -0.039,0.215 0,0.117 0,0.141 0.059,0.219 0.195,0.016 0.625,0 0.859,0.074 0.332,0.156 0.469,0.512 0.469,1.02 v 4.922 c 0,0 0.02,0.898 0.02,1.152 h -0.039 l -1.778,-3.945 c -0.215,-0.43 -0.429,-0.903 -0.644,-1.372 -0.391,-0.918 -0.625,-1.543 -0.743,-1.914 -0.039,-0.156 -0.175,-0.156 -0.273,-0.156 -0.098,0 -0.176,0.039 -0.254,0.235 -0.215,0.507 -0.371,0.839 -0.449,1.054 l -2.832,6.196 h -0.059 v -1.583 l 0.059,-3.949 c 0.019,-1.211 0.625,-1.773 1.601,-1.773 0.04,-0.063 0.059,-0.18 0.059,-0.195 0,-0.059 0,-0.137 -0.039,-0.215 -0.078,0 -0.254,-0.024 -0.449,-0.024 -0.117,0 -0.723,0.063 -1.621,0.063 -0.274,0 -0.801,-0.024 -1.192,-0.024 h -0.566 c -0.039,0.078 -0.059,0.141 -0.059,0.215 0,0.024 0.02,0.117 0.059,0.18 0.215,0.055 1.055,0.254 1.23,0.43 0.157,0.171 0.313,0.527 0.313,1.367 l 0.019,1.992 -0.019,2.344 c -0.02,0.679 -0.078,0.957 -0.43,1.187 -0.137,0.102 -0.664,0.156 -1.094,0.219 -0.058,0.074 -0.078,0.176 -0.078,0.23 0,0.063 0.02,0.141 0.078,0.239 0.313,0 0.918,-0.039 1.485,-0.039 h 2.07 c 0.059,-0.059 0.117,-0.098 0.156,-0.215 l 2.52,-5.703 0.469,1.129 c 0.371,0.917 0.957,2.304 1.757,3.792 0.157,0.333 0.391,0.758 0.508,0.973 l 3.184,0.063 c 0.039,-0.078 0.097,-0.137 0.097,-0.215 0,-0.078 -0.039,-0.141 -0.078,-0.215 -0.332,-0.063 -0.937,-0.063 -1.23,-0.551 -0.098,-0.152 -0.176,-0.308 -0.176,-0.992 v -4.082 c 0,-1.566 0.391,-1.723 0.586,-1.84 0.078,-0.058 0.566,-0.113 0.84,-0.113 0.058,-0.078 0.078,-0.141 0.078,-0.215 0,-0.117 -0.039,-0.141 -0.078,-0.219" /></g><g
         id="g895"
         fill="#fff"><path
           inkscape:connector-curvature="0"
           id="path893"
           d="m 219.9,403.89 -4.289,-7.098 c -16.82,-27.891 -47.914,-45.223 -81.144,-45.223 -9.57,0 -19.039,1.403 -28.141,4.16 l -5.894,1.79 -0.5355,-6.133 c -2.4414,-27.813 -0.7773,-55.774 4.9495,-83.106 6.074,-28.59 16.469,-56.164 30.961,-81.953 7.48,-13.43 16.168,-26.387 25.793,-38.547 15.957,-20.191 34.547,-38.269 55.238,-53.738 l 2.988,-2.2344 2.992,2.2227 c 20.739,15.449 39.356,33.489 55.344,53.598 9.57,12.051 18.262,24.988 25.824,38.457 13.797,24.441 23.903,50.785 30.079,78.285 l 0.417,2.09 0.379,1.891 c 5.723,27.546 7.438,55.488 5.051,83.043 l -0.531,6.156 -5.906,-1.797 c -9.094,-2.774 -18.571,-4.184 -28.168,-4.184 -33.239,0 -64.328,17.325 -81.129,45.219 z m -0.003,-9.68 c 17.168,-28.496 48.984,-47.641 85.41,-47.641 10.332,0 20.269,1.543 29.629,4.399 2.3,-26.684 0.742,-54.098 -5.012,-81.598 h 0.043 c -0.274,-1.308 -0.508,-2.598 -0.781,-3.906 -6.192,-27.57 -16.25,-53.356 -29.512,-76.93 h -0.047 c -7.48,-13.32 -15.977,-25.957 -25.371,-37.793 h -0.012 c -15.801,-19.883 -34.121,-37.578 -54.414,-52.695 -20.508,15.332 -38.73,33.125 -54.316,52.832 l 0.008,0.012 c -9.473,11.961 -17.965,24.617 -25.387,37.859 l 0.031,0.027 c -14.086,25.071 -24.402,52.184 -30.359,80.532 h -0.071 c -5.523,26.382 -7.3,53.828 -4.863,81.636 9.34,-2.832 19.277,-4.375 29.594,-4.375 36.426,0 68.238,19.145 85.43,47.641" /></g></g></g></svg>
