<?xml version="1.0" encoding="UTF-8"?>
<svg version="1.1" viewBox="0 0 145.23 41.61" xml:space="preserve" xmlns="http://www.w3.org/2000/svg"><g transform="matrix(1.3333 0 0 -1.3333 -13.174 53.851)"><g transform="scale(.1)"><g fill="#f58025"><path d="m165.51 150.88c15.586-19.707 33.808-37.5 54.316-52.832 20.293 15.117 38.613 32.812 54.414 52.695l-54.453 52.949-54.277-52.812"/><path d="m140.18 188.75 79.668 76.52 79.824-76.735c13.262 23.574 23.32 49.36 29.512 76.93 0.273 1.308 0.507 2.598 0.781 3.906h-220.18c5.957-28.379 16.289-55.523 30.391-80.621"/><path d="m140.13 188.75c7.422-13.242 15.918-25.898 25.39-37.871l54.278 52.812 54.453-52.949c9.394 11.836 17.891 24.473 25.371 37.793l-79.824 76.735-79.668-76.52"/></g><g fill="#221e20"><path d="m274 154.48-52.449 51.008-1.75 1.692-1.754-1.692-52.285-50.886c-8.317 10.769-15.871 22.07-22.5 33.679l76.539 73.504 76.679-73.711c-6.687-11.719-14.25-22.996-22.48-33.594"/><path d="m219.8 258.33-73.399-70.484c5.879-10.149 12.465-20.039 19.645-29.485l50.266 48.914 3.488 3.391 3.484-3.391 50.449-49.05c7.129 9.355 13.707 19.218 19.618 29.406zm0 6.942 79.824-76.735c-7.48-13.32-15.977-25.957-25.371-37.793l-54.453 52.949-54.278-52.812c-9.472 11.973-17.968 24.629-25.39 37.871l79.668 76.52"/><path d="m334.93 350.97c-9.36-2.856-19.297-4.399-29.629-4.399-36.426 0-68.242 19.145-85.41 47.641-17.192-28.496-49.004-47.641-85.43-47.641-10.317 0-20.254 1.543-29.594 4.375-2.437-27.808-0.66-55.254 4.863-81.636h220.18c5.766 27.515 7.324 54.961 5.024 81.66"/></g><path d="m274.12 317.29v9.356h-5.723v6.601l-5.996 1.68h-0.429v5.605s-2.071-2.48-11.563-2.48c-8.984 0-14.258 2.91-21.406 2.91-6.875 0-8.984-3.926-8.984-3.926v-2.265h-0.235v2.265s-2.148 3.926-8.984 3.926c-7.149 0-12.422-2.93-21.406-2.93-9.493 0-11.133 2.481-11.133 2.481v-5.899h-0.391l-6.504-1.367v-6.601h-5.742v-9.356h5.742v-15.137h-5.742v-9.375h5.742v-11.64s9.629-1.504 18.535-1.504c10.528 0 16.602 1.523 23.438 1.66v-2.949s2.754-1.367 6.426-1.367c3.711 0 6.66 1.367 6.66 1.367v2.949c6.816-0.137 12.89-1.66 23.476-1.66 8.868 0 18.496 1.504 18.496 1.504v11.64h5.723v9.375h-5.723v15.137h5.723" fill="#fff"/><g fill="#221e20"><path d="m267.27 281.74c-2.449-0.351-10.246-1.367-17.507-1.367-10.407 0-23.239 1.621-23.364 1.641l-1.125 0.156v-3.418c-0.984-0.371-3.144-1.035-5.664-1.035-2.468 0-4.492 0.664-5.429 1.015v3.438l-1.121-0.156c-0.129-0.02-12.969-1.641-23.313-1.641-7.285 0-15.086 1.016-17.539 1.367v50.446c0.918 0.175 3.644 0.761 4.973 1.035v-45.696c0.488-1.05 2.578-3.472 12.129-3.472l12.089 1.582 9.239 1.328c6.172 0 8.105-3.281 8.191-3.418l0.285 0.152h1.426l0.273-0.152c0.079 0.137 1.981 3.418 8.106 3.418l9.23-1.313 12.192-1.597c9.679 0 12.097 2.539 12.344 2.832l0.183 46.57c1.27-0.352 3.594-0.996 4.402-1.23zm-88.097 56.617c1.601-0.8 4.472-1.64 10.137-1.64l12.175 1.601 9.231 1.328c6.062 0 7.996-3.242 8.105-3.418v-49.851c-1.476 1.226-3.957 2.574-8.183 2.574l-9.668-1.363-11.66-1.543c-8.536 0-10.313 2.051-10.333 2.066 0 0 0.176 46.848 0.196 50.246zm41.64-2.129c0.079 0.137 1.981 3.418 8.106 3.418l9.23-1.308 12.192-1.602c5.902 0 8.91 0.918 10.574 1.719v-50.852c-0.129 0.254-2.523-1.558-10.574-1.558l-11.754 1.558-9.668 1.348c-4.192 0-6.641-1.348-8.106-2.558zm42.067-0.683 0.027 7.168-1.738-1.836c-0.02-0.02-2.152-2.149-10.828-2.149l-11.754 1.563-9.668 1.348c-5.305 0-7.949-2.168-9.102-3.477-1.164 1.309-3.828 3.477-9.101 3.477l-9.66-1.368-11.746-1.562c-8.536 0-10.313 2.051-10.333 2.07l-1.769 2.168-0.027-2.754v-4.922l-6.965-1.464v-53.805l0.84-0.117c0.097-0.02 9.804-1.524 18.691-1.524 8.762 0 19.16 1.153 22.441 1.543v-2.441l0.547-0.293c0.129-0.059 3.008-1.465 6.875-1.465 3.887 0 6.953 1.406 7.082 1.465l0.575 0.273v2.461c3.281-0.39 13.683-1.543 22.496-1.543 8.851 0 18.57 1.504 18.668 1.524l0.839 0.117v53.746l-6.39 1.797"/><path d="m193.34 329.4c-0.781-0.054-1.289-0.464-1.523-0.996l-3.204-7.129s-0.156-0.117-0.254-0.117c-0.097 0-0.214 0.117-0.292 0.332-0.079 0.254-0.469 1.25-1.309 3.203l-1.035 2.325c-0.371 0.863-0.664 1.425-0.762 1.601-0.371 0.649-0.84 0.703-1.348 0.781-0.058 0.078-0.058 0.161-0.058 0.215 0 0.078 0 0.117 0.039 0.219h0.527c0.606 0 1.113-0.039 1.563-0.039 0.527 0 1.406 0.058 1.992 0.058h0.351c0.059-0.019 0.079-0.136 0.079-0.199 0-0.039 0-0.176-0.039-0.23-0.391-0.039-1.27-0.024-1.27-0.571 0-0.117 0.02-0.332 0.078-0.464l2.109-5 1.758 4.136c0.215 0.469 0.235 0.879 0.235 1.094 0 0.473-0.332 0.688-1.211 0.781-0.02 0.063-0.059 0.141-0.059 0.2 0 0.078 0.039 0.195 0.059 0.253h0.254c0.39 0 0.781-0.058 1.66-0.058 0.156 0 0.762 0.039 1.054 0.039h0.606c0.039-0.078 0.078-0.117 0.078-0.195 0-0.063-0.039-0.176-0.078-0.239"/><path d="m202.26 321.42c-2.559 0-3.946 0.059-4.297 0.059-0.274 0-0.899 0.015-1.211 0.015-0.352 0-1.172-0.054-2.07-0.054l-0.508 0.015c-0.039 0.078-0.039 0.117-0.039 0.195 0 0.063 0 0.161 0.019 0.239 0.684 0.054 1.172 0.176 1.289 0.269 0.137 0.18 0.235 0.532 0.274 1.289 0 0.395 0.019 0.825 0.019 1.274 0 0.64-0.019 1.426-0.019 2.359v1.328c-0.02 0.918-0.469 0.918-1.426 1.035-0.02 0.079-0.039 0.161-0.039 0.215 0 0.063 0.019 0.199 0.078 0.215h0.469c0.312 0 1.152-0.016 2.754-0.016 1.465 0 2.89-0.019 3.203-0.019 0.195 0 0.762-0.023 0.879-0.023 0.195 0 0.273-0.016 0.273-0.196l0.117-1.914c-0.117-0.058-0.136-0.074-0.234-0.074-0.078 0-0.137 0-0.195 0.016-0.567 0.96-0.84 1.156-1.27 1.464-0.156 0.121-0.39 0.2-0.742 0.215-0.117 0-0.41 0.024-1.133 0.024-0.586 0-0.879-0.024-0.957-0.024-0.098 0-0.078 0-0.117-0.332-0.02-0.191-0.039-0.586-0.039-1.695v-1.098h0.293c0.371 0 0.742 0.039 0.957 0.102 0.332 0.094 0.683 0.332 0.859 0.601 0.078 0.102 0.156 0.571 0.196 0.703 0.058 0.04 0.156 0.063 0.273 0.063 0.078 0 0.156-0.023 0.215-0.063-0.02-0.347-0.078-0.996-0.078-1.812 0-0.41 0.039-1.313 0.039-1.684-0.078-0.054-0.117-0.054-0.235-0.054-0.058 0-0.175 0-0.234 0.015-0.078 0.727-0.195 1.211-0.801 1.465-0.332 0.141-0.605 0.18-0.937 0.18-0.176 0-0.391-0.024-0.567-0.039v-2.207c0-0.508 0.039-0.824 0.118-0.996 0.058-0.137 0.253-0.43 0.507-0.469 0.118-0.024 0.332-0.063 0.782-0.063h1.211c0.312 0 0.761 0.039 0.917 0.137 0.293 0.195 1.075 1.035 1.348 1.817 0.117 0.043 0.176 0.043 0.254 0.043s0.156-0.02 0.254-0.059v-2.231c0-0.21-0.137-0.23-0.449-0.23"/><path d="m212.42 327.2c-0.059 0-0.137 0.024-0.234 0.024-0.196 0.523-0.43 0.996-0.625 1.25-0.352 0.426-0.684 0.719-1.563 0.816-0.195 0.024-0.664 0.024-0.82 0.024l-0.02-3.735c0-0.586 0-1.265 0.02-2.554 0.019-0.977 0.449-0.977 1.465-1.118 0.058-0.093 0.078-0.172 0.078-0.23 0-0.078-0.02-0.141-0.059-0.219h-0.371c-0.586 0-1.758 0.039-2.129 0.039-0.254 0-1.543-0.054-2.148-0.054-0.059 0.093-0.078 0.093-0.078 0.234 0 0.058 0.019 0.137 0.058 0.215 1.348 0.093 1.485 0.347 1.524 0.781 0.039 0.27 0.039 1.387 0.039 2.52v3.082c0 0.39-0.02 0.785-0.078 1.039-0.254 0-1.075 0-1.309-0.098-0.684-0.258-1.172-0.82-1.699-1.856-0.059-0.019-0.156-0.019-0.215-0.019-0.078 0-0.156 0.019-0.195 0.074v2.168c0 0.195 0.019 0.258 0.254 0.258 0.195 0 0.507-0.023 0.917-0.023 0.293 0 1.524-0.016 3.067-0.016 2.031 0 3.535 0.058 3.926 0.058 0.195 0 0.332 0 0.41-0.082 0.019-0.039 0-0.195 0-0.308v-2.168c-0.039-0.078-0.137-0.102-0.215-0.102"/><path d="m192.93 313.98c-0.078 0-0.137 0.015-0.254 0.015-0.176 0.528-0.41 0.996-0.625 1.25-0.332 0.434-0.684 0.727-1.563 0.821-0.195 0.023-0.664 0.023-0.82 0.023l-0.019-3.731c0-0.585 0-1.269 0.019-2.558 0.02-0.981 0.469-0.981 1.484-1.113 0.059-0.098 0.059-0.176 0.059-0.239 0-0.078 0-0.132-0.039-0.215h-0.371c-0.606 0-1.777 0.04-2.129 0.04-0.254 0-1.543-0.055-2.168-0.055-0.039 0.098-0.059 0.098-0.059 0.23 0 0.063 0.02 0.141 0.039 0.215 1.348 0.102 1.485 0.356 1.543 0.781 0.02 0.278 0.02 1.387 0.02 2.524v3.086c0 0.387 0 0.777-0.059 1.035-0.254 0-1.093 0-1.328-0.102-0.683-0.254-1.152-0.816-1.679-1.851-0.079-0.024-0.176-0.024-0.235-0.024-0.078 0-0.137 0.024-0.195 0.079v2.167c0 0.2 0.039 0.254 0.254 0.254s0.508-0.015 0.918-0.015c0.312 0 1.543-0.024 3.086-0.024 2.011 0 3.535 0.063 3.906 0.063 0.215 0 0.352 0 0.41-0.078 0.039-0.039 0.02-0.2 0.02-0.317v-2.168c-0.059-0.078-0.137-0.093-0.215-0.093"/><path d="m202.57 308.19c-2.539 0-3.945 0.063-4.277 0.063-0.274 0-0.899 0.016-1.231 0.016s-1.171-0.055-2.05-0.055l-0.508 0.015c-0.039 0.083-0.059 0.122-0.059 0.2 0 0.054 0 0.156 0.039 0.23 0.684 0.063 1.172 0.18 1.27 0.278 0.156 0.171 0.234 0.527 0.273 1.289 0.02 0.386 0.039 0.82 0.039 1.265 0 0.649-0.019 1.43-0.019 2.363 0 0.665-0.02 1.055-0.02 1.333-0.019 0.917-0.449 0.917-1.406 1.035-0.039 0.078-0.059 0.156-0.059 0.215 0 0.054 0.039 0.195 0.098 0.21h0.449c0.332 0 1.153-0.015 2.754-0.015 1.485 0 2.891-0.024 3.223-0.024 0.176 0 0.762-0.015 0.859-0.015 0.215 0 0.293-0.024 0.293-0.199l0.098-1.915c-0.098-0.054-0.137-0.078-0.235-0.078-0.058 0-0.117 0-0.195 0.024-0.547 0.957-0.82 1.148-1.269 1.465-0.157 0.117-0.371 0.195-0.723 0.214-0.117 0-0.41 0.016-1.152 0.016-0.567 0-0.879-0.016-0.938-0.016-0.117 0-0.098 0-0.137-0.335 0-0.196-0.019-0.582-0.019-1.7v-1.09h0.273c0.391 0 0.762 0.04 0.957 0.094 0.352 0.102 0.684 0.332 0.879 0.61 0.059 0.093 0.157 0.562 0.176 0.703 0.078 0.039 0.176 0.054 0.273 0.054 0.098 0 0.176-0.015 0.235-0.054-0.02-0.356-0.098-0.996-0.098-1.821 0-0.41 0.059-1.304 0.059-1.675-0.098-0.063-0.117-0.063-0.235-0.063-0.078 0-0.175 0-0.253 0.024-0.079 0.718-0.176 1.211-0.801 1.461-0.332 0.136-0.606 0.175-0.918 0.175-0.176 0-0.391-0.015-0.567-0.039v-2.207c0-0.508 0.039-0.816 0.098-0.996 0.078-0.137 0.273-0.43 0.508-0.469 0.117-0.015 0.351-0.054 0.781-0.054h1.231c0.312 0 0.742 0.039 0.898 0.132 0.312 0.2 1.094 1.04 1.367 1.821 0.098 0.039 0.176 0.039 0.254 0.039 0.059 0 0.156-0.024 0.234-0.063v-2.222c0-0.215-0.136-0.239-0.449-0.239"/><path d="m208.51 308c-0.703 0-1.485 0.274-1.953 0.512-0.079 0.039-0.235 0.078-0.313 0.078-0.098 0-0.351-0.141-0.625-0.332-0.195 0-0.43 0.098-0.488 0.254 0 0.176 0.156 0.703 0.156 1.035 0 0.191-0.059 1.148-0.078 1.363 0.078 0.117 0.234 0.18 0.371 0.18h0.137c0.176-0.356 0.527-1.273 0.781-1.645 0.527-0.601 1.309-0.878 1.875-0.878 0.625 0 1.094 0.121 1.367 0.414 0.391 0.371 0.469 0.601 0.469 1.011 0 0.317-0.059 0.571-0.234 0.766-0.215 0.269-0.391 0.391-0.879 0.625-0.371 0.176-1.68 0.508-2.149 0.762-0.586 0.269-0.879 0.504-1.172 0.82-0.351 0.445-0.488 1.055-0.488 1.543 0 1.348 1.074 2.359 2.598 2.359 0.566 0 1.347-0.054 2.011-0.586 0.137 0.161 0.313 0.332 0.489 0.493 0.254 0 0.429-0.137 0.449-0.239-0.02-0.191-0.137-0.718-0.137-1.148 0-0.215 0.137-1.113 0.137-1.25-0.098-0.039-0.195-0.117-0.332-0.117-0.039 0-0.098 0.015-0.156 0.039-0.235 0.41-0.45 1.09-0.703 1.465-0.391 0.527-0.938 0.718-1.68 0.718-0.84 0-1.524-0.523-1.524-1.25 0-0.703 0.567-1.035 1.036-1.25 0.351-0.133 0.781-0.293 1.269-0.445 0.625-0.219 1.094-0.371 1.348-0.512 0.976-0.508 1.386-1.226 1.386-2.222 0-1.567-1.406-2.563-2.968-2.563"/><path d="m196.32 294.95c-2.558 0-3.945 0.063-4.297 0.063-0.273 0-0.898 0.015-1.211 0.015-0.351 0-1.171-0.054-2.07-0.054l-0.508 0.015c-0.039 0.078-0.039 0.117-0.039 0.2 0 0.054 0 0.156 0.02 0.234 0.683 0.058 1.172 0.176 1.289 0.269 0.137 0.176 0.234 0.532 0.273 1.289 0 0.391 0.02 0.825 0.02 1.274 0 0.641-0.02 1.426-0.02 2.359v1.328c-0.019 0.918-0.468 0.918-1.426 1.039-0.019 0.079-0.039 0.157-0.039 0.211 0 0.063 0.02 0.2 0.079 0.215h0.468c0.313 0 1.153-0.015 2.754-0.015 1.465 0 2.891-0.024 3.203-0.024 0.196 0 0.762-0.015 0.879-0.015 0.196 0 0.274-0.024 0.274-0.2l0.117-1.914c-0.117-0.054-0.137-0.078-0.235-0.078-0.078 0-0.136 0-0.195 0.024-0.566 0.957-0.84 1.152-1.269 1.461-0.157 0.121-0.391 0.199-0.743 0.214-0.117 0-0.41 0.024-1.132 0.024-0.586 0-0.879-0.024-0.957-0.024-0.098 0-0.079 0-0.118-0.332-0.019-0.191-0.039-0.586-0.039-1.699v-1.094h0.293c0.371 0 0.743 0.039 0.957 0.102 0.332 0.098 0.684 0.332 0.86 0.602 0.078 0.097 0.156 0.57 0.195 0.707 0.059 0.039 0.156 0.054 0.273 0.054 0.079 0 0.157-0.015 0.215-0.054-0.019-0.352-0.078-1-0.078-1.821 0-0.406 0.039-1.304 0.039-1.679-0.078-0.055-0.117-0.055-0.234-0.055-0.059 0-0.176 0-0.234 0.015-0.079 0.723-0.196 1.211-0.801 1.465-0.332 0.141-0.606 0.176-0.938 0.176-0.176 0-0.39-0.016-0.566-0.035v-2.207c0-0.512 0.039-0.82 0.117-0.996 0.059-0.141 0.254-0.434 0.508-0.473 0.117-0.015 0.332-0.055 0.781-0.055h1.211c0.313 0 0.762 0.04 0.918 0.133 0.293 0.2 1.074 1.035 1.348 1.821 0.117 0.039 0.175 0.039 0.254 0.039 0.078 0 0.156-0.024 0.253-0.063v-2.222c0-0.215-0.136-0.239-0.449-0.239"/><path d="m208.63 302.98c-0.859-0.042-1.602-0.507-1.602-1.875l-0.019-4.335c0-0.176 0.078-1.411 0.078-1.875-0.137-0.082-0.273-0.137-0.352-0.137-0.039 0-0.117 0.055-0.214 0.137l-5.957 6.406 0.058-1.313 0.02-2.359c0-0.18 0.039-0.625 0.078-0.957 0.039-0.527 0.195-0.703 0.429-0.902 0.293-0.25 0.782-0.332 1.133-0.372 0.039-0.054 0.059-0.132 0.059-0.195 0-0.015-0.02-0.137-0.078-0.215h-0.645c-0.547 0-0.976 0.024-1.543 0.024-0.371 0-0.898-0.039-1.269-0.039h-0.274c-0.019 0.054-0.019 0.156-0.019 0.195 0 0.035 0 0.113 0.039 0.215 0.429 0.039 1.094 0.23 1.347 0.586 0.098 0.215 0.137 0.601 0.137 1.011v3.032c0 0.484-0.019 0.742-0.039 1.211-0.019 0.386-0.098 0.679-0.293 0.918-0.019 0.054-0.215 0.254-0.41 0.449-0.195 0.152-0.664 0.293-0.957 0.406-0.039 0.078-0.059 0.18-0.059 0.195 0 0.063 0.02 0.161 0.059 0.215h0.215c0.176 0 1.094-0.039 1.797-0.039h0.41c0.078-0.039 0.215-0.113 0.254-0.176l4.414-4.824c0.332-0.371 0.762-0.855 0.996-1.172v3.481c0 0.469-0.02 0.801-0.039 0.972-0.039 0.356-0.117 0.665-0.254 0.903-0.137 0.215-0.957 0.332-1.387 0.429-0.039 0.079-0.039 0.172-0.039 0.25 0 0.04 0 0.098 0.02 0.176h0.254c0.41 0 1.074-0.054 1.484-0.054 1.016 0 1.328 0.039 1.836 0.039h0.332c0.039-0.078 0.039-0.161 0.039-0.215 0-0.039 0-0.141-0.039-0.196"/><path d="m236.46 329.44c-0.84-0.039-1.602-0.503-1.602-1.875v-4.336c0-0.171 0.059-1.406 0.059-1.875-0.117-0.078-0.273-0.132-0.332-0.132s-0.117 0.054-0.234 0.132l-5.957 6.411 0.078-1.313 0.019-2.359c0-0.176 0.039-0.625 0.059-0.957 0.058-0.532 0.215-0.703 0.429-0.903 0.313-0.254 0.801-0.332 1.133-0.371 0.039-0.054 0.059-0.133 0.059-0.191 0-0.024-0.02-0.141-0.059-0.219h-0.664c-0.527 0-0.957 0.024-1.543 0.024-0.371 0-0.879-0.039-1.25-0.039h-0.273c-0.02 0.054-0.039 0.156-0.039 0.195s0 0.113 0.058 0.215c0.411 0.039 1.075 0.23 1.328 0.586 0.118 0.211 0.137 0.601 0.137 1.011v3.032c0 0.488 0 0.742-0.019 1.211-0.02 0.386-0.118 0.679-0.293 0.917-0.039 0.055-0.215 0.25-0.43 0.45-0.176 0.156-0.664 0.293-0.957 0.41-0.02 0.078-0.039 0.176-0.039 0.191 0 0.063 0.019 0.157 0.039 0.215h0.234c0.157 0 1.075-0.035 1.778-0.035h0.41c0.078-0.039 0.215-0.117 0.273-0.18l4.414-4.82c0.332-0.371 0.762-0.859 0.996-1.176v3.481c0 0.464-0.039 0.797-0.058 0.972-0.02 0.356-0.117 0.664-0.254 0.903-0.137 0.214-0.957 0.332-1.367 0.425-0.039 0.079-0.059 0.176-0.059 0.254 0 0.039 0 0.102 0.039 0.176h0.254c0.41 0 1.074-0.058 1.485-0.058 0.996 0 1.328 0.042 1.835 0.042h0.313c0.039-0.082 0.059-0.16 0.059-0.214 0-0.039-0.02-0.137-0.059-0.2"/><path d="m243.86 328.64c-0.41 0.543-0.918 0.875-1.679 0.875-0.704 0-1.153-0.309-1.563-0.875-0.508-0.649-0.781-1.68-0.781-2.993 0-1.289 0.273-2.3 0.742-2.949 0.43-0.625 0.918-0.933 1.66-0.933 0.899 0 1.426 0.425 1.836 1.152 0.371 0.641 0.547 1.543 0.547 2.715 0 1.383-0.273 2.359-0.762 3.008zm1.367-6.172c-0.82-0.801-1.953-1.274-3.007-1.274-0.996 0-2.149 0.434-2.95 1.211-0.878 0.844-1.269 1.977-1.269 3.227 0 1.187 0.391 2.324 1.269 3.179 0.938 0.903 1.954 1.274 2.969 1.274 0.742 0 1.426-0.195 2.227-0.625 1.308-0.844 2.07-2.231 2.07-3.75 0-1.195-0.469-2.387-1.309-3.242"/><path d="m257.22 329.4c-0.762-0.054-1.27-0.464-1.504-0.996l-3.203-7.129s-0.157-0.117-0.254-0.117c-0.098 0-0.235 0.117-0.293 0.332-0.078 0.254-0.469 1.25-1.328 3.203l-1.016 2.325c-0.371 0.863-0.664 1.425-0.762 1.601-0.39 0.649-0.84 0.703-1.347 0.781-0.078 0.078-0.078 0.161-0.078 0.215 0 0.078 0 0.117 0.058 0.219h0.527c0.586 0 1.094-0.039 1.543-0.039 0.528 0 1.407 0.058 2.012 0.058h0.332c0.078-0.019 0.098-0.136 0.098-0.199 0-0.039 0-0.176-0.039-0.23-0.41-0.039-1.27-0.024-1.27-0.571 0-0.117 0-0.332 0.078-0.464l2.09-5 1.778 4.136c0.195 0.469 0.214 0.879 0.214 1.094 0 0.473-0.332 0.688-1.211 0.781-0.019 0.063-0.039 0.141-0.039 0.2 0 0.078 0.02 0.195 0.039 0.253h0.254c0.391 0 0.782-0.058 1.68-0.058 0.137 0 0.762 0.039 1.055 0.039h0.605c0.039-0.078 0.059-0.117 0.059-0.195 0-0.063-0.02-0.176-0.078-0.239"/><path d="m233.71 313.98c-0.078 0-0.137 0.015-0.254 0.015-0.176 0.528-0.41 0.996-0.625 1.25-0.332 0.434-0.683 0.727-1.562 0.821-0.196 0.023-0.664 0.023-0.821 0.023l-0.019-3.731c0-0.585 0-1.269 0.019-2.558 0.02-0.981 0.469-0.981 1.485-1.113 0.058-0.098 0.058-0.176 0.058-0.239 0-0.078 0-0.132-0.039-0.215h-0.371c-0.605 0-1.777 0.04-2.129 0.04-0.254 0-1.543-0.055-2.168-0.055-0.039 0.098-0.058 0.098-0.058 0.23 0 0.063 0.019 0.141 0.039 0.215 1.347 0.102 1.484 0.356 1.543 0.781 0.019 0.278 0.019 1.387 0.019 2.524v3.086c0 0.387 0 0.777-0.058 1.035-0.254 0-1.094 0-1.328-0.102-0.684-0.254-1.153-0.816-1.68-1.851-0.078-0.024-0.176-0.024-0.235-0.024-0.078 0-0.136 0.024-0.195 0.079v2.167c0 0.2 0.039 0.254 0.254 0.254s0.508-0.015 0.918-0.015c0.313 0 1.543-0.024 3.086-0.024 2.012 0 3.535 0.063 3.906 0.063 0.215 0 0.352 0 0.41-0.078 0.039-0.039 0.02-0.2 0.02-0.317v-2.168c-0.059-0.078-0.137-0.093-0.215-0.093"/><path d="m238.49 314.9h-0.019c-0.176-0.332-0.489-1.055-0.606-1.372-0.449-1.089-0.605-1.46-0.683-1.621h2.519c-0.195 0.508-0.84 2.051-1.211 2.993zm5.332-6.704h-0.664c-0.43 0-0.918 0.063-1.426 0.063-0.8 0-1.816-0.063-2.207-0.063-0.039 0.039-0.058 0.122-0.058 0.215 0 0.063 0.019 0.141 0.039 0.199 0.82 0.04 1.152 0.172 1.152 0.504 0 0.137 0 0.411-0.254 1.094-0.254 0.625-0.39 0.902-0.449 1.059-0.039 0.054-0.059 0.093-0.234 0.093h-2.657c-0.175-0.21-0.39-0.796-0.625-1.621-0.058-0.214-0.058-0.41-0.058-0.488 0-0.269 0.254-0.586 1.191-0.601 0.059-0.098 0.059-0.176 0.059-0.239 0-0.054 0-0.113-0.02-0.191h-0.234c-0.625 0-0.801 0.039-1.465 0.039-0.43 0-1.465-0.039-1.816-0.039-0.02 0.078-0.039 0.098-0.039 0.176 0 0.054 0 0.117 0.039 0.214 0.507 0.118 0.976 0.25 1.211 0.625 0.136 0.196 0.586 0.973 1.074 2.188 0.469 1.133 1.035 2.559 1.289 3.145 0.351 0.742 0.469 0.972 0.586 1.23 0.176 0.367 0.371 0.738 0.449 0.879 0.078 0.098 0.254 0.152 0.332 0.152 0.137 0 0.313-0.078 0.371-0.176 0.078-0.156 0.176-0.308 0.195-0.41 0.489-1.172 0.879-2.207 1.485-3.648 0.312-0.727 0.469-1.195 0.801-1.953 0.234-0.469 0.371-0.84 0.605-1.274 0.313-0.64 0.82-0.64 1.328-0.777 0.02-0.063 0.078-0.117 0.078-0.195s-0.039-0.121-0.078-0.2"/><path d="m256.87 308.19-3.418 0.039h-0.937c-0.039 0.083-0.059 0.176-0.059 0.215 0 0.118 0.02 0.141 0.078 0.215 0.176 0.024 0.625 0 0.84 0.078 0.352 0.157 0.488 0.508 0.488 1.02v6.07h-0.019l-1.797-3.941c-0.195-0.434-0.43-0.903-0.625-1.367-0.41-0.918-0.625-1.543-0.742-1.915-0.059-0.16-0.196-0.16-0.274-0.16-0.117 0-0.195 0.039-0.254 0.239-0.234 0.504-0.39 0.836-0.468 1.05l-2.813 6.196h-0.058v-1.582l0.058-3.95c0-1.21 0.625-1.777 1.582-1.777 0.039-0.058 0.078-0.176 0.078-0.191 0-0.063-0.019-0.137-0.058-0.215-0.059 0-0.254-0.024-0.43-0.024-0.117 0-0.742 0.063-1.641 0.063-0.254 0-0.781-0.024-1.191-0.024h-0.566c-0.02 0.083-0.04 0.137-0.04 0.215 0 0.024 0.02 0.118 0.04 0.176 0.234 0.063 1.054 0.258 1.23 0.434 0.176 0.175 0.332 0.523 0.332 1.367v4.336c-0.019 0.68-0.098 0.957-0.43 1.187-0.136 0.102-0.664 0.16-1.113 0.215-0.039 0.078-0.059 0.18-0.059 0.235 0 0.058 0.02 0.136 0.059 0.238 0.332 0 0.918-0.039 1.504-0.039h2.051c0.078-0.063 0.117-0.102 0.176-0.215l2.519-5.703 0.449 1.133c0.391 0.918 0.957 2.3 1.758 3.789 0.176 0.332 0.391 0.757 0.508 0.972l3.203 0.063c0.039-0.078 0.078-0.141 0.078-0.215 0-0.078-0.019-0.141-0.058-0.219-0.352-0.054-0.957-0.054-1.25-0.547-0.098-0.156-0.157-0.308-0.157-0.996v-4.082c0-1.558 0.391-1.719 0.567-1.836 0.097-0.054 0.586-0.117 0.859-0.117 0.039-0.074 0.059-0.137 0.059-0.215 0-0.113-0.039-0.136-0.059-0.215"/><path d="m233.51 300.73c-0.078 0-0.137 0.024-0.254 0.024-0.176 0.523-0.41 0.992-0.625 1.25-0.332 0.43-0.684 0.723-1.563 0.816-0.195 0.024-0.664 0.024-0.82 0.024l-0.02-3.735c0-0.586 0-1.265 0.02-2.554 0.02-0.981 0.469-0.981 1.484-1.117 0.059-0.094 0.059-0.172 0.059-0.235 0-0.074 0-0.137-0.039-0.215h-0.371c-0.606 0-1.778 0.039-2.129 0.039-0.254 0-1.543-0.054-2.168-0.054-0.039 0.093-0.059 0.093-0.059 0.23 0 0.063 0.02 0.141 0.039 0.219 1.348 0.098 1.485 0.348 1.543 0.777 0.02 0.278 0.02 1.391 0.02 2.524v3.086c0 0.386 0 0.781-0.059 1.035-0.254 0-1.093 0-1.328-0.102-0.683-0.254-1.152-0.816-1.679-1.851-0.079-0.024-0.176-0.024-0.235-0.024-0.078 0-0.137 0.024-0.195 0.078v2.168c0 0.2 0.039 0.254 0.254 0.254s0.508-0.015 0.918-0.015c0.312 0 1.543-0.024 3.086-0.024 2.011 0 3.535 0.063 3.906 0.063 0.215 0 0.351 0 0.41-0.078 0.039-0.043 0.02-0.2 0.02-0.317v-2.168c-0.059-0.074-0.137-0.098-0.215-0.098"/><path d="m244 302.94c-0.762-0.055-1.27-0.465-1.504-0.997l-3.203-7.128s-0.156-0.118-0.254-0.118-0.234 0.118-0.293 0.332c-0.078 0.254-0.469 1.25-1.328 3.203l-1.016 2.329c-0.371 0.859-0.664 1.421-0.761 1.597-0.391 0.649-0.84 0.703-1.348 0.782-0.078 0.082-0.078 0.16-0.078 0.214 0 0.078 0 0.118 0.058 0.215h0.528c0.586 0 1.094-0.039 1.543-0.039 0.527 0 1.406 0.063 2.011 0.063h0.333c0.078-0.024 0.097-0.137 0.097-0.2 0-0.039 0-0.171-0.039-0.23-0.41-0.039-1.269-0.023-1.269-0.566 0-0.122 0-0.332 0.078-0.469l2.09-5 1.777 4.137c0.195 0.468 0.215 0.878 0.215 1.093 0 0.473-0.332 0.688-1.211 0.782-0.02 0.058-0.039 0.136-0.039 0.199 0 0.078 0.019 0.191 0.039 0.254h0.254c0.39 0 0.781-0.063 1.679-0.063 0.137 0 0.762 0.039 1.055 0.039h0.606c0.039-0.074 0.058-0.113 0.058-0.191 0-0.063-0.019-0.18-0.078-0.238"/><path d="m257.05 294.95-3.399 0.039h-0.957c-0.039 0.078-0.039 0.18-0.039 0.215 0 0.117 0 0.141 0.059 0.219 0.195 0.016 0.625 0 0.859 0.074 0.332 0.156 0.469 0.512 0.469 1.02v4.922s0.02 0.898 0.02 1.152h-0.039l-1.778-3.945c-0.215-0.43-0.429-0.903-0.644-1.372-0.391-0.918-0.625-1.543-0.743-1.914-0.039-0.156-0.175-0.156-0.273-0.156s-0.176 0.039-0.254 0.235c-0.215 0.507-0.371 0.839-0.449 1.054l-2.832 6.196h-0.059v-1.583l0.059-3.949c0.019-1.211 0.625-1.773 1.601-1.773 0.04-0.063 0.059-0.18 0.059-0.195 0-0.059 0-0.137-0.039-0.215-0.078 0-0.254-0.024-0.449-0.024-0.117 0-0.723 0.063-1.621 0.063-0.274 0-0.801-0.024-1.192-0.024h-0.566c-0.039 0.078-0.059 0.141-0.059 0.215 0 0.024 0.02 0.117 0.059 0.18 0.215 0.055 1.055 0.254 1.23 0.43 0.157 0.171 0.313 0.527 0.313 1.367l0.019 1.992-0.019 2.344c-0.02 0.679-0.078 0.957-0.43 1.187-0.137 0.102-0.664 0.156-1.094 0.219-0.058 0.074-0.078 0.176-0.078 0.23 0 0.063 0.02 0.141 0.078 0.239 0.313 0 0.918-0.039 1.485-0.039h2.07c0.059-0.059 0.117-0.098 0.156-0.215l2.52-5.703 0.469 1.129c0.371 0.917 0.957 2.304 1.757 3.792 0.157 0.333 0.391 0.758 0.508 0.973l3.184 0.063c0.039-0.078 0.097-0.137 0.097-0.215s-0.039-0.141-0.078-0.215c-0.332-0.063-0.937-0.063-1.23-0.551-0.098-0.152-0.176-0.308-0.176-0.992v-4.082c0-1.566 0.391-1.723 0.586-1.84 0.078-0.058 0.566-0.113 0.84-0.113 0.058-0.078 0.078-0.141 0.078-0.215 0-0.117-0.039-0.141-0.078-0.219"/></g><g fill="#fff"><path d="m451.68 326.02c0 8.188-4.688 15.825-11.661 18.965-3.593 1.543-9.921 2.524-19.511 2.524-8.399 0-21.485-0.664-27.246-0.664-4.043 0-10.145 0.449-13.524 0.449-0.332-0.551-0.558-1.313-0.558-1.738 0-0.454 0-1.641 0.332-2.192 2.07-0.664 5.449-1.187 7.636-1.758 1.848-1.621 2.286-3.046 2.942-6.211 0.32-3.804 0.547-8.613 0.547-16.89 0-23.012-0.11-35.102-0.442-37.715-0.429-3.281-2.605-6.66-6.211-7.734-1.64-0.332-4.043-0.879-6.316-1.094-0.109-0.547-0.227-1.313-0.227-2.285 0-0.879 0.118-0.996 0.325-1.543 3.484 0 13.738 0.449 17.664 0.449 9.707 0 19.629-0.449 23.652-0.449h2.734c0.332 0.449 0.332 1.211 0.332 1.734 0 0.664 0 1.547-0.222 1.977-3.274 0.425-8.176 1.09-10.246 3.496-1.094 1.289-2.188 3.164-2.188 6.426l-0.332 23.984c6.543-0.434 13.527-0.649 17.344-0.649 5.012 0 9.258 0.864 12.637 1.958 7.746 2.925 12.539 10.582 12.539 18.96m-19.5 0.454c0-5.571-1.973-10.469-5.559-13.633-2.293-1.86-5.898-2.949-11.348-2.949-2.285 0-4.043 0.093-4.687 0.21-0.867 0.122-1.426 0.215-1.426 0.786l0.117 31.929c1.309 0.102 3.164 0.547 6.328 0.547 7.414 0 11.993-1.851 14.172-6.441 1.512-2.934 2.403-6.645 2.403-10.449m118.39-56.489c0 0.547-0.215 1.86-0.547 2.285-1.082 0-5.546 0.215-7.187 1.426-0.547 0.649-1.414 1.953-1.856 2.739-1.425 5-3.046 8.375-4.687 12.515-2.293 5.449-5.449 10.59-8.066 12.988-0.985 0.864-4.364 2.289-8.184 3.594-1.738 0.649-3.152 1.195-4.461 1.738 1.629 0.332 2.391 0.454 4.461 0.649 8.078 0.996 9.922 2.398 11.992 4.043 4.367 3.277 6.758 8.277 6.758 14.18 0 8.828-5.664 17.324-13.621 19.839-2.629 0.762-7.297 1.196-13.078 1.196-8.184 0-19.629-0.762-25.078-0.762-1.641 0-11.133 0.215-14.942 0.215-1.64 0-5.781 0.215-6.426 0.215-0.332-0.762-0.546-1.621-0.546-2.075 0-0.425 0.109-1.519 0.214-1.953 1.856-0.215 5.235-0.64 6.985-0.972 2.605-1.977 3.484-3.496 4.57-5.903 0.555-3.496 0.652-12.422 0.652-27.793 0-11.132 0.118-23.98-0.429-28.14-0.321-2.715-1.309-5.981-4.473-7.285-1.406-0.239-4.031-0.664-6.211-0.762-0.332-0.547-0.547-1.645-0.547-2.192 0-0.332 0.215-1.187 0.43-1.738 1.543 0 18.223 0.317 21.699 0.317 6.973 0 12.871-0.317 19.082-0.317 0.215 0.434 0.43 1.195 0.43 1.645 0 0.742-0.215 1.836-0.43 2.285-2.187 0.215-4.902 0.855-6.101 1.094-2.727 1.289-4.7 3.906-4.7 7.734l-0.097 25.176c0.859 0.117 1.953 0.117 2.832 0.117 1.406 0 3.047-0.234 5.773-1.738 4.032-2.305 6.004-3.95 8.621-7.969 3.489-5.449 5.782-15.473 6.868-23.441 0.32-2.286 1.191-4.254 3.269-4.469 0.871-0.117 6.652-0.332 10.793-0.332h15.594c0.429 0.449 0.644 1.304 0.644 1.851m-31.609 57.016c0-6.762-4.582-14.492-9.914-15.805-2.188-0.547-4.922-0.879-8.945-0.879-1.094 0-2.735 0-4.043 0.239l-0.106 9.254v20.058c0 1.313 0.32 2.07 0.652 2.402 0.325 0.332 2.297 0.649 4.59 0.649 8.496 0 12.207-0.742 15.254-5.879 1.739-2.949 2.512-6.328 2.512-10.039m87.43-56.899c0 0.547-0.118 1.743-0.321 2.168-1.64 0.122-6.105 0.547-8.066 0.981-1.75 2.09-2.961 4.473-3.711 8.394-0.109 5.239-0.227 16.04-0.227 26.172v26.821c0 2.949 1.204 5.23 1.973 5.894 2.07 1.953 6.211 2.387 9.707 2.832 0.215 0.434 0.324 1.621 0.324 2.071 0 0.648-0.324 1.527-0.547 1.742h-3.164c-4.582 0-15.265-0.547-18.976-0.547-2.285 0-12.969 0.332-17.762 0.43h-2.394c-0.332-0.43-0.547-0.864-0.547-1.836 0-0.454 0.097-1.543 0.215-2.075 5.351-0.449 7.734-0.972 8.507-1.543 1.309-0.972 3.153-3.379 3.602-9.254 0.098-2.074 0.207-6.542 0.312-16.585 0.118-5.45 0.227-13.067 0.227-19.391 0-3.164-0.227-10.258-0.332-14.066-0.207-2.618-0.762-5.118-1.516-6.543-1.308-1.09-2.625-3.043-10.586-3.59-0.214-0.434-0.332-1.86-0.332-2.309 0-0.855 0.227-1.285 0.227-1.836h1.855c4.364 0 15.262 0.551 20.926 0.551 1.641 0 12.969-0.332 16.574-0.332h3.602c0.312 0.547 0.43 1.426 0.43 1.851m107.79 75.547c0 0.434-0.118 1.196-0.332 1.528h-2.52c-5.449 0-8.926-0.215-18.75-0.215-3.379 0-8.398 0.215-9.59 0.215h-2.832c-0.332-0.215-0.449-1.426-0.449-1.86 0-0.547 0.117-1.402 0.566-1.851 1.739-0.547 8.379-1.289 11.231-3.164 1.953-2.285 2.812-6.86 3.144-11.117 0.118-1.622 0.235-3.258 0.235-7.735v-22.793c0-2.613-0.117-3.472-0.235-4.683-1.836 2.07-4.472 5.996-8.828 10.894l-36.367 40.356c-0.332 0.425-0.977 0.972-1.641 1.406-0.867 0-2.402 0.113-3.261 0.113-6.992 0-19.629 0.317-21.485 0.317-0.215-0.43-0.429-1.079-0.429-1.504 0-0.239 0.214-1.758 0.312-2.09 1.641-0.434 5.246-0.981 8.184-4.145 1.758-1.953 4.804-4.683 5.781-6.875 0.332-0.761 0.441-1.953 0.441-3.472 0-5.664-0.324-13.633-0.324-21.25v-22.153c0-3.594-0.332-6.426-0.664-8.277-2.285-2.402-5.769-4.145-11.445-5.551-0.215-0.562-0.43-1.426-0.43-1.973 0-0.332 0.098-1.421 0.324-1.519h2.071c2.175 0 7.195 0.332 10.468 0.332 4.793 0 8.055-0.332 12.528-0.332h6.508c0.425 0.098 0.543 1.426 0.543 1.851 0 0.43-0.118 1.313-0.329 1.743-3.781 0.972-9.328 1.851-13.039 6.757-0.754 1.637-1.418 9.708-1.418 13.536 0 3.472-0.117 8.257-0.117 14.707 0 8.613 0.117 16.132 0.227 19.937 0.652-0.762 1.414-1.734 1.961-2.383l50.332-56.597c0.547-0.532 2.5-0.649 3.047-0.649 0.546 0 0.878 0 1.308 0.215 0.215 0.551 0.977 2.309 0.977 4.902 0 3.165-0.117 6.45-0.117 8.071v45.469c0 13.628 6.445 17.441 13.964 17.773 0.332 0.547 0.45 1.519 0.45 2.066m84.875-62.246c-0.332 0.981-1.211 2.617-3.711 2.617-0.227 0-0.559-0.117-0.762-0.117-6.555-9.273-13.75-12.754-21.926-12.754-11.336 0-19.402 7.641-22.019 14.399-1.426 3.594-3.379 11.441-3.379 19.844 0 7.949 1.199 14.39 3.269 19.082 4.797 12.632 11.77 16.558 20.285 16.558 7.09 0 12.969-4.043 17.442-9.805 1.855-2.515 3.808-7.417 5.547-13.203 0.449-0.093 1.425-0.308 2.402-0.308 0.652 0 2.188 0.523 2.617 0.972-0.097 1.196-1.191 9.59-1.191 12.207 0 3.262 0.867 8.618 0.867 10.688-0.652 0.66-2.832 1.094-4.246 1.187-1.641-1.187-2.188-2.593-3.711-4.468-6.105 4.375-11.777 7.754-24.199 7.754-11.446 0-20.508-3.926-27.375-10.801-7.52-7.403-11.66-17.656-11.66-30.742 0-13.95 5.89-25.411 15.371-32.598 6.008-4.355 14.836-7.309 25.402-7.309 13.301 0 23.008 5.024 27.91 11.661 1.953 2.636 2.176 3.285 3.067 5.136m92.226 3.813c0 1.519 0 2.183-0.117 3.164-0.547 0.332-0.762 0.332-1.641 0.332-0.761 0-1.621 0-2.402-0.219-3.691-8.394-9.043-14.937-11.984-16.68-1.629-0.996-4.141-1.211-8.184-1.211h-8.926c-3.484 0-6.218 0.333-7.195 0.547-1.641 0.332-3.379 2.953-4.141 4.692-0.773 1.851-1.211 1.851-1.211 6.875v23.867h4.043c1.082 0 3.711-0.219 6.641-1.523 2.734-1.211 3.828-2.833 4.91-4.59 0.988-1.504 1.633-7.524 1.848-9.043 0.554-0.317 1.972-0.434 2.851-0.434 0.86 0 1.407 0.117 2.168 0.551 0 2.945-0.656 10.894-0.656 15.269 0 5.454 0.762 12.969 1.086 16.875-0.43 0.239-1.086 0.454-2.168 0.454-0.762 0-2.187 0-2.832-0.332-0.332-1.528-1.535-6.094-1.758-6.426-1.621-2.739-4.472-4.809-7.402-5.688-1.965-0.523-4.805-0.855-6.328-0.855h-2.285v10.136c0 10.465 0.214 13.844 0.32 15.821 0.109 1.289 0.324 2.715 0.441 3.687 0.977 0.117 1.524 0.215 6.543 0.215 6.309 0 9.266-0.098 10.242-0.098 3.059-0.234 5.344-0.875 6.985-2.183 4.14-3.164 7.305-8.164 10.457-13.52 0.656-0.214 1.75-0.214 2.297-0.214 0.652 0 0.761 0.214 1.64 0.648 0 6.656-0.449 15.269-0.664 17.984-0.117 1.098-0.324 1.426-2.5 1.426-0.879 0-5.019 0.219-9.375 0.219-6.211 0-8.73-0.117-18.222-0.117-5.118 0-15.696-0.102-20.168-0.102-6.532 0-12.098 0.219-14.93 0.219h-3.711c-0.332-0.434-0.539-1.313-0.539-1.738 0-0.547 0.207-1.758 0.539-2.192 1.309-0.43 6.434-0.332 7.969-1.187 1.523-1.313 2.929-1.86 3.914-7.09 0.226-2.309 0.332-8.613 0.332-13.637v-22.461c0-4.566-0.106-11.226-0.223-13.941-0.215-4.258-1.738-9.375-2.383-10.371-0.996-0.762-5.468-1.41-9.824-1.621-0.324-0.664-0.547-1.758-0.547-2.407 0-0.64 0.223-1.425 0.547-1.968h3.594c3.496 0 16.355 0.332 19.305 0.332 2.726 0 7.961-0.215 14.277-0.215 3.488 0 13.742-0.664 35.762-0.664 0.871 0 1.847-0.102 2.941 0.23 0.332 0.551 0.332 0.766 0.438 1.738 0.226 2.192 0.226 8.618 0.226 17.446m93.965 35.426v22.25c0 1.636-0.645 2.07-2.285 2.07-3.274 0-20.488-0.434-37.93-0.434-13.527 0-24.758 0.215-30.859 0.215h-8.078c-1.407 0-1.844-0.328-1.844-1.851v-20.825c0.437-0.332 1.191-0.449 1.746-0.449 0.43 0 1.965 0 2.395 0.234 4.902 9.907 9.492 15.254 15.273 18.208 3.262 0.308 9.687 0.425 11.434 0.425 0.109-1.187 0.226-5.015 0.324-9.59 0.117-7.847 0.117-11.226 0.117-29.761 0-16.035-0.117-23.227-0.332-24.961-0.43-3.047 0.117-5.356-12.969-5.903-0.332-0.757-0.332-1.621-0.332-2.5 0-0.425 0-1.304 0.117-1.738h4.239c4.043 0 13.523 0.434 17.461 0.434 3.152 0 13.3-0.332 19.941-0.332h3.047c0.332 0.547 0.332 1.734 0.332 2.285 0 0.664-0.109 1.426-0.43 1.973-1.211 0-8.183-0.215-11.23 2.07-0.332 1.187-0.989 4.351-0.989 8.18-0.105 11.757-0.222 16.234-0.222 24.085 0 10.133 0.117 17.008 0.117 35.875 1.523 0 5.02 0.098 8.281 0 6.766-1.851 10.039-4.375 12.977-8.281 1.847-2.515 3.82-6.758 5.773-11.89 0.664-0.215 1.211-0.215 1.856-0.215 0.437 0 1.855 0.215 2.07 0.426m95.83-13.727c0 15.254-6.76 26.91-19.41 33.902-6.75 3.711-13.51 5.571-20.71 5.571-15.91 0-30.3-9.496-36.75-20.293-4.14-6.758-6.304-14.16-6.304-22.012 0-12.539 6.104-24.863 15.584-31.953 7.2-5.238 15.37-7.832 24.86-7.832 5.79 0 11.23 1.07 16.57 3.14 6 2.305 11.12 5.903 15.15 10.372 7.09 7.738 11.01 17.66 11.01 29.105m-19.73 2.066c0-16.464-4.58-30.972-10.79-36.089-3.16-2.622-7.09-3.926-11.56-3.926-6.09 0-11.45 2.398-14.49 7.301-4.14 6.332-6.44 18.109-6.44 28.339 0 15.176 3.92 27.051 10.9 32.832 3.71 3.047 7.52 4.243 11.34 4.243 5.9 0 11.56-2.832 14.83-7.524 4.14-5.664 6.21-13.847 6.21-25.176m124.93 34.668c0 0.434-0.09 1.196-0.32 1.528h-2.5c-5.46 0-8.93-0.215-18.76-0.215-3.38 0-8.4 0.215-9.59 0.215h-2.83c-0.33-0.215-0.44-1.426-0.44-1.86 0-0.547 0.11-1.402 0.54-1.851 1.76-0.547 8.4-1.289 11.23-3.164 1.97-2.285 2.84-6.86 3.17-11.117 0.1-1.622 0.21-3.258 0.21-7.735v-22.793c0-2.613-0.11-3.472-0.21-4.683-1.86 2.07-4.47 5.996-8.84 10.894l-36.41 40.356c-0.32 0.425-0.98 0.972-1.63 1.406-0.88 0-2.4 0.113-3.26 0.113-7 0-19.63 0.317-21.49 0.317-0.21-0.43-0.44-1.079-0.44-1.504 0-0.239 0.23-1.758 0.32-2.09 1.64-0.434 5.24-0.981 8.19-4.145 1.74-1.953 4.79-4.683 5.77-6.875 0.33-0.761 0.44-1.953 0.44-3.472 0-5.664-0.33-13.633-0.33-21.25v-22.153c0-3.594-0.32-6.426-0.65-8.277-2.28-2.402-5.78-4.145-11.44-5.551-0.23-0.562-0.43-1.426-0.43-1.973 0-0.332 0.09-1.421 0.31-1.519h2.07c2.19 0 7.21 0.332 10.47 0.332 4.8 0 8.07-0.332 12.54-0.332h6.54c0.43 0.098 0.55 1.426 0.55 1.851 0 0.43-0.12 1.313-0.33 1.743-3.81 0.972-9.38 1.851-13.09 6.757-0.76 1.637-1.41 9.708-1.41 13.536 0 3.472-0.11 8.257-0.11 14.707 0 8.613 0.11 16.132 0.22 19.937 0.66-0.762 1.42-1.734 1.96-2.383l50.37-56.597c0.54-0.532 2.5-0.649 3.05-0.649 0.54 0 0.87 0 1.31 0.215 0.22 0.551 0.98 2.309 0.98 4.902 0 3.165-0.11 6.45-0.11 8.071v45.469c0 13.628 6.43 17.441 13.95 17.773 0.34 0.547 0.43 1.519 0.43 2.066"/><path d="m464.01 223.4c0 0.43-0.215 1.094-0.535 1.407h-3.157c-3.386 0-7.968-0.215-11.894-0.215-4.356 0-9.258 0.215-12.43 0.215h-3.918c-0.332-0.645-0.449-0.86-0.449-1.407 0-0.449 0.117-0.878 0.332-1.425 0.449 0 8.398-0.098 9.816-2.071 1.2-1.64 3.817-5.664 4.247-8.066 0.214-1.094 0.878-5.566 0.878-11.992 0-9.258 0-15.469-0.105-18.75-0.227-6.114-0.879-10.899-1.973-14.492-3.047-9.493-10.129-14.18-21.359-14.18-4.805 0-8.945 0.976-12.762 2.734-7.09 3.477-10.469 10.137-10.566 13.731l-0.559 32.695-0.097 13.301c0 2.519 3.156 4.805 4.238 6.113 0.879 0.43 5.676 0.879 8.398 1.094 0.332 0.644 0.547 0.976 0.547 1.523s-0.32 1.094-0.762 1.407l-4.14-0.098c-4.043-0.117-9.375-0.215-12.754-0.215-5.234 0-9.277 0.098-12.539 0.098h-4.57c-0.45-0.313-0.555-0.977-0.555-1.524s0.105-0.976 0.437-1.308c3.477-0.43 5.774-0.762 7.305-1.075 1.848-1.093 3.164-2.949 3.82-4.804 0.106-1.426 0.321-4.903 0.321-11.778v-26.171c0-6.758 0.332-11.543 1.093-14.61 1.407-5.664 4.465-10.137 9.485-13.398 5.34-3.496 11.992-5.235 19.949-5.235 7.305 0 13.516 1.524 18.75 4.473 5.449 2.93 8.828 7.734 10.793 14.492 1.082 4.024 1.746 8.399 1.746 12.969v20.937c0 3.926 0.215 8.829 0.215 10.801 0.117 5.879 1.641 9.375 3.281 11.992 1.738 0.547 3.262 0.86 9.043 1.524 0.215 0.43 0.43 0.762 0.43 1.308m100.96 0.547c0 0.43-0.106 0.762-0.332 1.075h-2.5c-5.449 0-7.852-0.215-17.656-0.215-3.387 0-8.399 0.215-9.59 0.215h-2.852c-0.312-0.215-0.43-0.977-0.43-1.407 0-0.547 0.118-0.761 0.547-1.191 1.75-0.547 8.399-1.309 11.231-3.164 1.953-2.305 2.832-6.875 3.164-11.133 0.098-1.621 0.215-3.262 0.215-7.734v-32.383c0-2.617-0.117-3.496-0.215-4.688-1.856 2.071-5.02 6.114-9.266 11.133l-41.652 48.613c-0.332 0.45-0.977 0.977-1.641 1.426-0.867 0-1.953 0.098-2.832 0.098-6.972 0-13.074 0.332-14.941 0.332-0.203-0.43-0.313-0.645-0.313-1.094 0-0.215 0.11-1.094 0.207-1.406 1.641-0.449 6.434-0.996 8.407-3.067 1.738-1.953 4.355-4.238 5.332-6.425 0.332-0.762 0.449-1.953 0.449-3.496 0-5.664-0.332-16.016-0.332-23.653v-23.222c0-3.594-0.332-6.426-0.652-8.282-2.297-2.402-5.782-4.14-11.458-5.566-0.214-0.547-0.429-0.762-0.429-1.309 0-0.332 0.097-0.976 0.324-1.074h2.07c2.176 0 7.196 0.313 10.477 0.313 4.785 0 6.965-0.313 11.426-0.313h6.562c0.43 0.098 0.528 0.977 0.528 1.406 0 0.43-0.098 0.664-0.321 1.094-3.808 0.977-9.367 1.856-13.078 6.758-0.762 1.641-1.426 9.922-1.426 13.73 0 3.497-0.105 9.161-0.105 15.586 0 8.614 0.105 20.508 0.222 24.317 0.657-0.762 1.641-1.953 2.395-2.832l51.68-60.508c0.535-0.547 0.761-0.645 1.316-0.645 0.527 0 0.207 0 0.645 0.215 0.214 0.547 0.547 2.285 0.547 4.903 0 3.164-0.106 6.425-0.106 8.066v46.328c0 13.633 6.434 17.461 13.953 17.774 0.324 0.546 0.43 0.878 0.43 1.425m49.277-76.211c0 0.547-0.097 1.094-0.32 1.524-1.641 0.117-6.106 0.547-8.078 0.976-1.739 2.071-2.93 4.473-3.711 8.399-0.098 5.234-0.203 17.109-0.203 27.265v27.676c0 2.949 1.191 5.254 1.961 5.899 2.07 1.953 6.211 2.402 9.699 2.832 0.223 0.429 0.332 0.976 0.332 1.406 0 0.664-0.332 1.094-0.559 1.309h-3.152c-4.582 0-11.125-0.528-14.836-0.528-2.273 0-8.828 0.313-13.613 0.43h-2.403c-0.332-0.43-0.546-0.43-0.546-1.406 0-0.45 0.109-0.879 0.214-1.426 5.344-0.449 7.746-0.977 8.496-1.524 1.321-0.996 3.176-3.378 3.614-9.277 0.097-2.07 0.215-7.637 0.324-17.656 0.105-5.449 0.223-12.871 0.223-19.18 0-3.183-0.223-11.348-0.332-15.156-0.215-2.617-0.762-5.137-1.532-6.543-1.3-1.094-2.609-3.047-10.566-3.613-0.227-0.43-0.332-1.192-0.332-1.621 0-0.879 0.223-0.879 0.223-1.426h1.847c4.363 0 11.121 0.547 16.785 0.547 1.641 0 8.828-0.313 12.434-0.313h3.602c0.332 0.527 0.429 0.977 0.429 1.406m95.469 75.977c0 0.449-0.117 1.094-0.547 1.211h-3.711c-2.617 0-6.758-0.215-8.613-0.215-8.828 0-11.992 0.547-13.301 0.547h-1.953c-0.234-0.547-0.566-0.879-0.566-1.426 0-0.43 0.234-0.762 0.234-1.191 2.715-0.332 5.117-0.879 7.519-1.641 1.309-1.308 2.735-3.926 2.735-6.875 0-1.074-1.094-6.211-2.637-9.922l-17.539-43.164-21.543 54.629c0.324 2.598 1.738 5.117 3.578 6.094 1.848 0.215 4.117 0.879 7.067 0.879 0.214 0.429 0.429 1.074 0.429 1.523 0 0.43-0.097 1.094-0.547 1.192h-2.734c-3.34 0-8.457-0.43-14.238-0.43-2.5 0-7.403 0.215-12.207 0.215h-4.246c-0.227-0.43-0.43-0.645-0.43-1.309 0-0.644 0.105-0.879 0.32-1.308 3.047-0.762 5.996-1.954 9.16-3.692 2.071-3.066 6.543-14.082 8.946-19.844l9.023-21.816c7.5-18.105 11.973-30.195 12.52-32.266 0.547-0.332 0-0.644 0.976-0.644 0.977 0 0.879 0.195 1.094 0.742l28.125 67.598c0.977 2.402 2.5 4.687 3.926 6.23 1.738 1.953 5.332 2.715 8.711 3.477 0.117 0.429 0.449 0.879 0.449 1.406m80.715-59.512c0 1.524 0 2.188-0.098 3.164-0.547 0.332-0.762 0.332-1.64 0.332-0.762 0-0.645 0-1.418-0.234-2.403-7.949-6.532-13.848-11.231-16.68-1.629-0.976-4.578-1.191-9.258-1.191h-12.215c-3.808 0.117-6.211 0.332-7.199 0.547-1.629 0.312-3.379 2.949-4.129 4.687-0.781 1.856-1.211 2.5-1.211 7.52v24.863h3.496c3.485 0 6.317-0.234 9.258-1.543 2.735-1.191 4.805-2.93 5.887-4.668 0.988-1.543 1.32-7.539 1.535-9.062 0.535-0.332 0.867-0.43 1.738-0.43 0.868 0 0.977 0.098 1.747 0.547 0 2.929-0.653 10.898-0.653 15.254 0 5.449 0.762 12.109 1.082 16.035-0.429 0.215-0.652 0.43-1.738 0.43-0.77 0-1.082 0-1.746-0.313-0.324-1.543-1.203-6.113-1.406-6.445-1.641-2.715-5.469-4.903-8.399-5.782-1.973-0.546-4.805-0.878-8.945-0.878h-1.738v10.703c0 10.449 0.214 14.707 0.312 16.679 0.117 1.309 0.332 2.715 0.449 3.692 0.977 0.117 4.141 0.215 9.16 0.215 6.309 0 11.004-0.098 11.993-0.098 3.046-0.215 5.332-0.879 6.972-2.188 5.34-4.14 6.758-6.875 9.707-13.515 0.653-0.215 0.75-0.215 1.309-0.215 0.644 0 0.762 0.215 1.621 0.645 0 6.66-0.43 14.179-0.645 16.914-0.117 1.093-0.332 1.406-2.511 1.406-0.867 0-5.008 0.215-9.364 0.215-6.23 0-8.73-0.098-18.222-0.098-5.117 0-14.16-0.117-18.633-0.117-6.543 0-7.969 0.215-10.813 0.215h-3.73c-0.332-0.43-0.555-0.86-0.555-1.289 0-0.567 0.223-1.094 0.555-1.543 1.32-0.43 6.477-0.332 8-1.192 1.523-1.308 2.938-1.64 3.926-6.875 0.215-2.285 0.332-9.707 0.332-14.726v-22.442c0-4.57-0.117-12.109-0.227-14.824-0.222-4.258-1.746-9.609-2.402-10.586-0.984-0.762-5.457-1.406-9.852-1.621-0.332-0.664-0.558-1.094-0.558-1.758 0-0.644 0.226-0.976 0.558-1.523h3.621c3.508 0 12.239 0.332 15.168 0.332 2.735 0 6.434-0.215 12.762-0.215 3.488 0 13.731-0.664 35.762-0.664 0.871 0 1.848-0.117 2.941 0.215 0.332 0.547 0.332 0.761 0.438 1.738 0.207 2.188 0.207 7.539 0.207 16.367m91.472-16.562c0 0.527-0.203 1.191-0.535 1.621-1.093 0-5.566 0.215-7.207 1.426-0.539 0.644-1.406 1.953-1.847 2.714-1.414 5.02-2.938 9.493-4.579 13.633-2.285 5.449-5.449 10.586-8.066 12.969-0.976 0.879-4.035 2.305-7.851 3.594-1.739 0.664-3.165 1.211-4.473 1.758 1.64 0.312 2.402 0.429 4.473 0.644 7.089 0.879 9.492 2.402 11.562 4.043 4.355 3.262 7.188 8.164 7.188 14.063 0 8.828-5.665 17.226-13.625 19.726-2.618 0.762-7.313 1.192-13.086 1.192-8.172 0-14.286-0.743-19.735-0.743-1.621 0-6.972 0.215-10.781 0.215-1.641 0-5.781 0.215-6.438 0.215-0.32-0.762-0.546-0.996-0.546-1.426 0-0.429 0.109-1.074 0.226-1.523 1.844-0.215 5.223-0.645 6.973-0.977 2.617-1.953 3.496-3.496 4.578-5.898 0.539-3.477 0.656-13.301 0.656-28.672 0-11.113 0.106-25.078-0.449-29.219-0.313-2.715-1.289-5.976-4.465-7.285-1.414-0.234-4.031-0.664-6.211-0.781-0.332-0.528-0.555-0.977-0.555-1.524 0-0.332 0.223-0.761 0.45-1.308 1.523 0 14.062 0.332 17.547 0.332 6.984 0 8.722-0.332 14.933-0.332 0.223 0.449 0.449 0.761 0.449 1.211 0 0.761-0.226 1.191-0.449 1.621-2.168 0.215-4.902 0.879-6.105 1.094-2.723 1.308-4.676 3.925-4.676 7.753l-0.117 27.247c0.879 0.117 4.031 0.117 4.902 0.117 2.949 0 5.899-0.235 8.719-1.543 4.152-1.836 8.078-4.785 10.695-8.828 3.485-5.45 5.781-15.801 6.875-23.75 0.313-2.305 1.192-4.258 3.262-4.473 0.867-0.117 2.187-0.332 6.328-0.332h11.328c0.449 0.43 0.652 0.859 0.652 1.426m-22.89 57.773c0-6.972-5.555-14.824-11.981-16.25-2.629-0.547-6.445-0.879-11.347-0.879-1.309 0-5.02 0-6.653 0.235l-0.105 9.589v20.606c0 1.426 0.332 2.187 0.762 2.5 0.437 0.332 4.902 0.664 7.625 0.664 10.246 0 14.941-0.977 18.652-6.328 2.07-2.949 3.047-6.328 3.047-10.137m96.476-37.617c0 8.73-3.906 14.707-12.316 19.18-2.293 1.308-6.316 2.734-12.098 4.375-6.652 1.855-12.207 4.023-15.812 5.996-2.391 1.308-6.434 4.902-6.434 11.875 0 6.972 7.098 12.754 15.371 12.754 6.543 0 11.785-3.262 14.942-7.618 2.734-3.828 3.711-5.566 6.758-12.441 0.332-0.098 0.761-0.215 1.093-0.215 0.977 0 1.856 0.547 2.403 1.094-0.332 2.734-0.871 6.543-0.871 9.805 0 2.832 0.656 6.543 0.988 8.515-0.891 1.309-1.867 1.524-3.281 1.524-1.524-0.996-2.95-2.5-4.258-3.926-7.188 5.781-13.078 6.758-18.528 6.758-13.406 0-22.996-8.946-22.996-20.821 0-4.043 1.407-7.968 4.024-11.992 2.402-3.379 5.898-5.996 10.586-7.968 3.152-1.29 17.324-5.567 19.285-6.329 8.723-3.379 12.004-6.308 12.004-14.043 0-3.828-1.641-7.207-4.805-11.015-2.832-3.496-7.305-5.137-12.101-5.137-5.125 0-13.954 2.188-18.321 8.066-2.617 3.379-6.316 10.469-7.41 14.727-0.762 0.215-0.762 0.215-1.523 0.215-0.657 0-1.426-0.215-2.071-0.645 0-1.425 0.438-8.613 0.438-10.8 0-5.332-0.985-7.95-1.199-9.707 0.32-1.094 2.175-2.188 3.496-2.188 2.273 1.973 4.668 3.496 5.449 3.496 0.644 0 1.621-0.312 2.598-0.976 7.089-4.59 12.988-5.45 18.222-5.45 15.371 0 26.367 7.735 26.367 22.891m53.866-20.059c0 0.547-0.12 1.094-0.33 1.524-1.62 0.117-6.1 0.547-8.07 0.976-1.735 2.071-2.938 4.473-3.7 8.399-0.105 5.234-0.223 17.109-0.223 27.265v27.676c0 2.949 1.211 5.254 1.961 5.899 2.072 1.953 6.222 2.402 9.702 2.832 0.22 0.429 0.33 0.976 0.33 1.406 0 0.664-0.33 1.094-0.54 1.309h-3.15c-4.59 0-11.135-0.528-14.846-0.528-2.285 0-8.828 0.313-13.625 0.43h-2.402c-0.32-0.43-0.535-0.43-0.535-1.406 0-0.45 0.105-0.879 0.215-1.426 5.351-0.449 7.742-0.977 8.504-1.524 1.308-0.996 3.156-3.378 3.605-9.277 0.106-2.07 0.203-7.637 0.313-17.656 0.117-5.449 0.222-12.871 0.222-19.18 0-3.183-0.222-11.348-0.332-15.156-0.203-2.617-0.761-5.137-1.511-6.543-1.321-1.094-2.629-3.047-10.586-3.613-0.215-0.43-0.325-1.192-0.325-1.621 0-0.879 0.207-0.879 0.207-1.426h1.864c4.367 0 11.125 0.547 16.789 0.547 1.64 0 8.823-0.313 12.443-0.313h3.58c0.32 0.527 0.44 0.977 0.44 1.406m90.61 53.848v21.152c0 1.641-0.67 2.071-2.3 2.071-3.27 0-18.32-0.43-35.76-0.43-13.53 0-22.57 0.215-28.68 0.215h-8.06c-1.41 0-1.86-0.313-1.86-1.856v-19.726c0.45-0.332 0.78-0.43 1.3-0.43 0.45 0 0.88 0 1.32 0.215 4.25 9.492 6.43 14.492 13.74 18.203 3.26 0.332 14.71 0.43 16.46 0.43 0.11-1.192 0.22-5 0.33-9.59 0.11-7.852 0.11-12.09 0.11-30.645 0-16.015-0.11-24.296-0.33-26.035-0.43-3.066 0.11-5.351-12.97-5.898-0.34-0.762-0.34-0.977-0.34-1.856 0-0.429 0-0.859 0.12-1.308h4.25c4.03 0 9.37 0.449 13.3 0.449 3.16 0 9.16-0.332 15.81-0.332h3.05c0.33 0.547 0.33 1.094 0.33 1.621 0 0.664-0.11 0.996-0.44 1.543-1.2 0-8.17-0.234-11.23 2.07-0.33 1.192-0.99 4.356-0.99 8.164-0.09 11.778-0.21 17.344-0.21 25.196 0 10.136 0.12 17.871 0.12 36.738 1.52 0 9.59 0.098 12.87 0 6.74-1.855 9.36-4.355 12.3-8.281 2.62-3.496 3.28-6.66 4.9-11.895 0.67-0.215 0.99-0.215 1.65-0.215 0.42 0 0.98 0.215 1.21 0.43m88.07 22.461c0 0.664-0.43 0.879-0.65 1.309-4.47 0-10.35-0.332-12.65-0.332-5.56 0-12.31 0.449-15.26 0.449-0.33-0.664-0.44-0.762-0.44-1.309s0.11-0.976 0.22-1.308c3.17-0.645 7.74-1.426 8.62-2.95 0.76-1.406 0.98-2.5 0.98-4.238 0-1.309-0.1-2.617-0.66-4.043-0.98-2.715-3.05-6.973-5.99-12.969-5.02-10.136-8.18-16.464-9.93-18.964-2.83 4.785-9.15 17.421-10.67 20.703l-6.12 13.3c-0.21 0.43-0.43 1.973-0.43 2.95 0 1.406 0.22 2.402 0.43 2.832 0.99 1.953 4.37 2.168 8.95 2.734 0.21 0.527 0.32 1.191 0.32 1.621 0 0.762-0.32 0.547-0.65 1.094h-1.96c-7.31 0-5.13-0.332-17.67-0.332-5.33 0-11.77 0.332-12.64 0.332-0.44-0.762-0.66-0.879-0.66-1.641 0-0.429 0.11-0.761 0.45-1.308 7.29-1.739 9.47-3.047 10.24-4.473l19.08-37.383c1.85-3.496 2.94-6.211 3.49-8.183 0.76-3.047 0.88-7.52 0.88-13.067 0-4.707-1.64-7.207-3.5-8.418-0.76-0.429-6.22-1.191-8.72-1.406-0.44-0.762-0.56-0.977-0.56-1.523 0-0.547 0.23-0.879 0.34-1.309 5.56 0 11.34 0.117 14.61 0.117 2.29 0 5.78-0.117 12.21-0.234 3.7-0.098 6.54-0.215 8.5-0.215 0.22 0.449 0.56 0.879 0.56 1.426 0 0.527-0.12 0.859-0.45 1.406-3.49 0.43-8.38 1.094-9.48 2.187-1.75 1.856-2.61 2.715-2.84 6.973l-0.87 16.367c-0.11 1.192 0.33 2.285 0.44 2.598 0.32 1.211 0.75 2.187 1.18 3.066l16.8 33.243c1.52 2.832 4.8 5.996 6.98 7.304 1.54 0.977 4.91 1.641 7.09 2.188 0.23 0.547 0.43 0.976 0.43 1.406"/><path d="m219.9 403.89-4.289-7.098c-16.82-27.891-47.914-45.223-81.144-45.223-9.57 0-19.039 1.403-28.141 4.16l-5.894 1.79-0.5355-6.133c-2.4414-27.813-0.7773-55.774 4.9495-83.106 6.074-28.59 16.469-56.164 30.961-81.953 7.48-13.43 16.168-26.387 25.793-38.547 15.957-20.191 34.547-38.269 55.238-53.738l2.988-2.2344 2.992 2.2227c20.739 15.449 39.356 33.489 55.344 53.598 9.57 12.051 18.262 24.988 25.824 38.457 13.797 24.441 23.903 50.785 30.079 78.285l0.417 2.09 0.379 1.891c5.723 27.546 7.438 55.488 5.051 83.043l-0.531 6.156-5.906-1.797c-9.094-2.774-18.571-4.184-28.168-4.184-33.239 0-64.328 17.325-81.129 45.219zm-3e-3 -9.68c17.168-28.496 48.984-47.641 85.41-47.641 10.332 0 20.269 1.543 29.629 4.399 2.3-26.684 0.742-54.098-5.012-81.598h0.043c-0.274-1.308-0.508-2.598-0.781-3.906-6.192-27.57-16.25-53.356-29.512-76.93h-0.047c-7.48-13.32-15.977-25.957-25.371-37.793h-0.012c-15.801-19.883-34.121-37.578-54.414-52.695-20.508 15.332-38.73 33.125-54.316 52.832l8e-3 0.012c-9.473 11.961-17.965 24.617-25.387 37.859l0.031 0.027c-14.086 25.071-24.402 52.184-30.359 80.532h-0.071c-5.523 26.382-7.3 53.828-4.863 81.636 9.34-2.832 19.277-4.375 29.594-4.375 36.426 0 68.238 19.145 85.43 47.641"/></g></g></g></svg>
